<svg width="148" height="32" viewBox="0 0 148 32" fill="none" xmlns="http://www.w3.org/2000/svg">
<mask id="mask0_54_464" style="mask-type:luminance" maskUnits="userSpaceOnUse" x="0" y="0" width="148" height="32">
<path d="M147.81 0H0V31.416H147.81V0Z" fill="white"/>
</mask>
<g mask="url(#mask0_54_464)">
<mask id="mask1_54_464" style="mask-type:luminance" maskUnits="userSpaceOnUse" x="0" y="0" width="148" height="32">
<path d="M147.81 0H0V31.416H147.81V0Z" fill="white"/>
</mask>
<g mask="url(#mask1_54_464)">
<path d="M58.6077 23.7546H54.4493V23.0113C56.8255 17.8085 59.2018 12.7543 61.5781 7.55151H63.5088C65.8851 12.7543 68.2613 17.8085 70.6376 23.0113V23.7546H66.4791L65.588 21.8221H59.6474L58.6077 23.7546ZM122.915 7.70014H129.747C132.569 7.84879 134.351 9.33534 135.094 11.4165C135.39 12.1597 135.539 12.903 135.539 13.7948C135.539 14.6869 135.39 15.43 135.094 16.322C134.351 18.2545 132.569 19.741 129.747 19.741H127.073V23.7546H122.619V7.70014H122.915ZM127.073 15.8761H129.747C130.49 15.8761 130.935 15.2815 131.083 14.6869C131.233 14.3896 131.233 14.0923 131.233 13.7948C131.233 13.4975 131.233 13.2003 131.083 12.903C130.935 12.1597 130.49 11.7138 129.747 11.7138C129.153 11.7138 128.411 11.7138 127.816 11.7138H127.073V15.8761ZM115.638 8.14616C118.459 9.33534 120.539 11.8624 120.539 15.8761C120.539 19.741 118.459 22.4167 115.638 23.4573C114.598 23.9033 113.41 24.2006 112.37 24.2006C111.182 24.2006 109.995 23.9033 108.955 23.4573C106.281 22.4167 104.054 19.741 104.054 15.8761C104.054 11.8624 106.281 9.33534 108.955 8.14616C109.995 7.70014 111.182 7.55151 112.37 7.55151C113.41 7.55151 114.598 7.70014 115.638 8.14616ZM110.737 12.0111C109.549 12.6057 108.509 13.7948 108.509 15.8761C108.509 17.8085 109.549 18.9978 110.737 19.5924C111.331 19.741 111.777 19.8897 112.37 19.8897C112.816 19.8897 113.41 19.741 113.856 19.5924C115.044 18.9978 116.084 17.8085 116.084 15.8761C116.084 13.7948 115.044 12.6057 113.856 12.0111C113.41 11.8624 112.816 11.7138 112.37 11.7138C111.777 11.7138 111.331 11.8624 110.737 12.0111ZM90.9844 25.5385H87.5687V20.0383H89.2023L94.5485 7.55151H96.4792L101.975 20.0383H103.757V25.5385H100.043V23.9033H91.1329V25.5385H90.9844ZM97.5192 19.8897L95.44 14.9842L93.6579 19.8897H97.5192ZM85.6381 7.99751V23.7546H81.1824V17.5112H76.7268V23.7546H72.2712V7.70014H76.7268V13.4975H81.1824V7.70014H85.6381V7.99751ZM60.984 18.1058H64.1028L62.6176 14.5382L60.984 18.1058Z" fill="#FEFEFE"/>
<path fill-rule="evenodd" clip-rule="evenodd" d="M31.4294 0.713623L49.2513 30.5927H13.1619L15.5382 26.5791C16.7263 26.7278 17.9145 27.1736 18.954 27.6197C20.5878 28.0657 22.2214 28.6603 23.8551 28.6603C24.8947 28.6603 25.9343 28.363 26.974 27.917C29.6473 26.5791 30.2413 24.4981 30.2413 24.3493C30.2413 24.2008 30.2413 24.052 30.0928 24.052C29.9443 23.9033 29.6473 24.052 29.6473 24.2008C29.6473 24.2008 28.3106 25.9845 24.0036 25.8359C22.5184 25.8359 21.0333 25.2412 19.6967 24.7954C18.954 24.4981 18.0631 24.052 17.1719 23.9033L18.2115 22.1195C19.3997 22.4168 20.5878 22.8629 21.6273 23.1602C23.2611 23.7547 24.7461 24.3493 26.3799 24.3493C27.568 24.3493 28.6076 24.052 29.6473 23.606C32.172 22.1195 32.7661 20.1871 32.7661 20.0384C32.9146 19.8898 32.7661 19.7411 32.6175 19.7411C32.4691 19.5925 32.3205 19.5925 32.172 19.7411C32.172 19.7411 30.9839 21.6735 26.5283 21.525C25.1917 21.3762 23.7066 20.9304 22.3699 20.3357C21.4789 20.0384 20.7362 19.7411 19.8451 19.5925L20.8848 17.8086C22.073 18.1059 23.2611 18.4032 24.3006 18.8492C25.9343 19.4438 27.568 20.0384 29.2016 20.0384C30.2413 20.0384 31.2809 19.7411 32.3205 19.1465C34.9938 17.8086 35.5879 15.8761 35.5879 15.7275C35.5879 15.5788 35.5879 15.4302 35.4394 15.2815C35.2909 15.2815 34.9938 15.2815 34.9938 15.4302C34.9938 15.4302 33.6572 17.214 29.3502 17.0653C27.865 17.0653 26.3799 16.6194 25.0432 16.0248C24.3006 15.7275 23.4096 15.4302 22.5184 15.2815L31.4294 0.713623ZM13.9046 25.6872C14.3501 25.6872 14.7956 25.6872 15.2411 25.8359C16.7263 25.9845 18.0631 26.4305 19.251 26.8763C20.8848 27.4711 22.2214 28.0657 23.8551 28.0657C24.8947 28.0657 25.7858 27.7684 26.6769 27.3224C27.7165 26.7278 28.3105 26.1332 28.7562 25.6872C27.865 26.1332 26.2313 26.5791 24.0036 26.5791C22.3699 26.4305 20.8848 25.9845 19.5481 25.3899C18.0631 24.7954 16.7263 24.3493 15.2411 24.3493C14.3501 24.3493 13.4589 24.4981 12.5679 25.0926C11.8253 25.3899 11.2312 25.9845 10.7856 26.4305C11.5283 25.9845 12.5679 25.6872 13.9046 25.6872ZM16.4293 21.525C16.8749 21.525 17.469 21.525 17.9145 21.525C19.251 21.6735 20.5878 22.2681 21.7759 22.7141C23.4096 23.3087 24.8947 23.7547 26.3799 23.7547C27.4195 23.7547 28.4592 23.4575 29.3502 23.0114C30.5384 22.4168 31.2809 21.525 31.7264 20.9304C30.8353 21.525 29.2016 22.1195 26.5283 22.1195C25.0432 21.9708 23.5581 21.525 22.073 20.9304C20.5878 20.3357 19.251 19.8898 17.766 19.8898C16.8749 19.8898 15.9838 20.0384 15.0927 20.633C14.053 21.0789 13.3104 21.8223 12.8649 22.4168C13.6075 21.9708 14.7956 21.525 16.4293 21.525ZM19.251 17.0653C19.6967 17.0653 20.1421 17.214 20.5878 17.214C21.9244 17.3626 23.2611 17.8086 24.4491 18.2546C26.0829 18.8492 27.568 19.4438 29.0532 19.4438C30.0928 19.4438 31.1323 19.1465 32.0234 18.7005C33.3602 18.1059 34.1027 17.214 34.3997 16.6194C33.5086 17.0653 32.0234 17.8086 29.2016 17.66C27.7165 17.66 26.2313 17.0653 24.7461 16.6194C23.4096 16.0248 21.9244 15.5788 20.5878 15.5788C19.5481 15.5788 18.657 15.7275 17.766 16.1734C16.7263 16.768 15.9838 17.5113 15.5382 18.1059C16.2808 17.66 17.469 17.0653 19.251 17.0653Z" fill="#FEFEFE"/>
</g>
</g>
</svg>
