<svg width="128" height="40" viewBox="0 0 128 40" fill="none" xmlns="http://www.w3.org/2000/svg">
<g clip-path="url(#clip0_54_475)">
<mask id="mask0_54_475" style="mask-type:luminance" maskUnits="userSpaceOnUse" x="0" y="0" width="128" height="40">
<path d="M127.66 0H0V39.6789H127.66V0Z" fill="white"/>
</mask>
<g mask="url(#mask0_54_475)">
<path d="M11.381 16.6023H13.55L17.6924 31.3453H15.8822L14.7079 27.105H10.06L8.96732 31.3453H7.17337L11.3647 16.6023H11.381ZM12.441 17.7928H12.3922L10.4514 25.6373H14.3492L12.441 17.7928Z" fill="white"/>
<path d="M20.5955 26.6813C20.5955 28.8504 21.2152 30.2203 23.3843 30.2203C25.0478 30.2203 26.1894 29.5028 26.1894 27.7578C26.1894 25.8496 25.2923 25.3767 23.792 24.8058L21.6229 23.9904C20.2694 23.4848 19.2419 22.4574 19.2419 20.1253C19.2419 17.7932 20.8564 16.3091 23.2538 16.3091C25.8142 16.3091 27.331 17.7606 27.4451 20.4678H25.798C25.798 18.8533 24.9988 17.7932 23.368 17.7932C21.5414 17.7932 20.938 18.9021 20.938 20.1253C20.938 21.4789 21.2804 22.066 22.2264 22.4248L24.5748 23.3055C26.9069 24.1861 27.8691 25.5724 27.8691 27.5294C27.8691 30.3182 26.1568 31.7044 23.3191 31.7044C20.4976 31.7044 18.932 29.8615 18.932 26.6813H20.5629H20.5955Z" fill="white"/>
<path d="M34.23 31.3453H32.5991V18.0864H28.7666V16.6023H38.0462V18.0864H34.23V31.3453Z" fill="white"/>
<path d="M41.5029 31.3453H39.872V16.6023H44.3569C46.9336 16.6023 48.6297 17.858 48.6297 20.6142C48.6297 22.294 47.6675 23.7618 45.9714 24.0064V24.0391C47.5208 24.2185 48.483 25.5557 48.483 27.3823C48.483 30.4483 48.7439 30.5625 48.9723 31.0028V31.329H47.3088C46.9826 30.3668 46.8358 29.5025 46.8358 27.9042C46.8358 25.9635 45.9714 24.8381 44.1612 24.8381H41.5029V31.329V31.3453ZM41.5029 23.3704H44.3569C45.4985 23.3704 46.9336 22.8322 46.9336 20.6631C46.9336 18.5431 45.7268 18.07 44.2917 18.07H41.5029V23.3704Z" fill="white"/>
<path d="M54.8924 16.6023H57.0615L61.2039 31.3453H59.3936L58.2194 27.105H53.5715L52.4788 31.3453H50.6848L54.8924 16.6023ZM55.9525 17.7928H55.9199L53.9791 25.6373H57.8769L55.9688 17.7928H55.9525Z" fill="white"/>
<path d="M70.5493 29.8775H76.5672V31.3453H68.9021V16.6023H70.5493V29.8775Z" fill="white"/>
<path d="M80.1872 31.3453H78.5563V16.6023H80.1872V31.3453Z" fill="white"/>
<path d="M85.846 16.6023L90.0213 28.6707C90.2008 29.1763 90.3472 29.6166 90.5268 30.2853H90.5923C90.5753 29.7471 90.5268 29.1763 90.5268 28.638V16.6023H92.1574V31.3453H89.4664L85.3566 19.5541C85.1123 18.8855 84.9492 18.2168 84.8024 17.3362H84.7698C84.7861 18.07 84.8024 18.8366 84.8024 19.5868V31.3453H83.1716V16.6023H85.8298H85.846Z" fill="white"/>
<path d="M96.8221 16.6023V27.2029C96.8221 28.3445 96.9847 30.22 99.6111 30.22C102.237 30.22 102.399 28.3608 102.399 27.2029V16.6023H104.031V27.8063C104.031 30.432 102.285 31.7041 99.6111 31.7041C96.92 31.7041 95.1915 30.432 95.1915 27.8063V16.6023H96.8221Z" fill="white"/>
<path d="M108.043 16.6023L111.124 22.3592L114.223 16.6023H116.05L112.087 23.7781L116.131 31.3453H114.256L111.124 25.1807L107.929 31.3453H106.117L110.195 23.7781L106.215 16.6023H108.043Z" fill="white"/>
<path d="M86.2545 38.015H7.28777C4.17283 38.015 1.6613 35.5035 1.6613 32.3885V15.0036C1.6613 11.905 4.17283 9.37713 7.28777 9.37713H58.0402C58.4968 9.37713 58.8719 9.00198 58.8719 8.54538C58.8719 8.08872 58.4968 7.71362 58.0402 7.71362H7.28777C3.27586 7.71362 0.0141296 10.9753 0.0141296 14.9873V32.3559C0.0141296 36.3679 3.27586 39.6296 7.28777 39.6296H86.2545V37.9824V38.015Z" fill="white"/>
<path d="M120.371 7.74683H69.6516C69.1949 7.74683 68.8198 8.12192 68.8198 8.57854C68.8198 9.03522 69.1949 9.41028 69.6516 9.41028H120.371C123.486 9.41028 125.997 11.9219 125.997 15.0367V32.4054C125.997 35.5204 123.47 38.0319 120.371 38.0319H86.2536V39.6791H120.371C124.383 39.6791 127.645 36.4173 127.645 32.4054V15.0367C127.645 11.0248 124.383 7.76313 120.371 7.76313V7.74683Z" fill="white"/>
<path d="M70.2228 5.08829L65.8847 4.33809C65.5096 3.55528 64.2375 0.864357 64.2375 0.864357L63.8298 0L61.7749 4.33809L57.4369 5.08829L60.5355 8.44786L59.8505 13.21L63.8298 11.0246L67.8091 13.21L67.1078 8.44786C67.6623 7.84444 69.5378 5.80587 69.6357 5.70802L70.2065 5.08829H70.2228ZM66.5697 8.21954L67.1568 12.1988L63.8298 10.3723L60.5029 12.1988L61.09 8.21954L58.4969 5.41446L62.1175 4.79473L63.8135 1.19053L65.5096 4.79473L69.1301 5.41446L66.537 8.21954H66.5697Z" fill="white"/>
<path d="M61.3998 8.95347L62.5904 10.5843L63.1123 10.3071L61.1226 6.16465L63.7483 9.96453L63.8299 9.9156L64.7431 10.4212L62.7372 5.96895L66.1783 11.1877L66.6349 11.4486L66.5697 10.9431L64.3517 5.75694L66.2435 8.80666L66.1457 8.08907L66.7328 7.45304L65.9663 5.54493L66.9611 7.22471L68.3637 5.69171L65.265 5.15352L63.8299 2.12012L62.3947 5.15352L59.2961 5.69171L61.514 8.08907L61.3998 8.95347Z" fill="white"/>
<path d="M61.2694 9.81787L61.0248 11.4488L61.8729 10.9921L61.2694 9.81787Z" fill="white"/>
<path d="M120.894 18.4779C120.894 19.5542 120.03 20.4186 118.969 20.4186C117.91 20.4186 117.029 19.5542 117.029 18.4779C117.029 17.4178 117.893 16.5535 118.953 16.5535C120.014 16.5535 120.877 17.4178 120.877 18.4779H120.894ZM117.323 18.4779C117.323 19.3912 118.056 20.125 118.969 20.125C119.883 20.125 120.6 19.3912 120.6 18.4779C120.6 17.5646 119.883 16.847 118.969 16.847C118.056 16.847 117.323 17.5646 117.323 18.4779ZM118.236 17.4016H119.181C119.557 17.4016 119.948 17.5157 119.948 17.9723C119.948 18.4126 119.622 18.5594 119.263 18.5594L119.916 19.5542H119.605L119.002 18.5594H118.529V19.5542H118.252V17.3852L118.236 17.4016ZM118.513 18.3637H119.149C119.345 18.3637 119.671 18.3311 119.671 17.9723C119.671 17.6461 119.377 17.6136 119.117 17.6136H118.513V18.38V18.3637Z" fill="white"/>
</g>
</g>
<defs>
<clipPath id="clip0_54_475">
<rect width="127.66" height="40" fill="white"/>
</clipPath>
</defs>
</svg>
