<svg width="68" height="48" viewBox="0 0 68 48" fill="none" xmlns="http://www.w3.org/2000/svg">
<g clip-path="url(#clip0_54_560)">
<mask id="mask0_54_560" style="mask-type:luminance" maskUnits="userSpaceOnUse" x="0" y="0" width="68" height="48">
<path d="M67.6056 0H0V47.9686H67.6056V0Z" fill="white"/>
</mask>
<g mask="url(#mask0_54_560)">
<path opacity="0.97" d="M7.4638 0.218435C9.51603 -0.186441 11.7365 -0.0662434 13.623 0.899135C15.0464 1.55452 16.0877 2.83368 16.7469 4.22545C16.5773 4.27226 16.4078 4.31907 16.2383 4.36588C15.6436 3.35243 14.9135 2.37567 13.8951 1.75317C12.3451 0.740978 10.4245 0.398099 8.59998 0.594211C6.78943 0.704288 5.13957 1.69623 3.88192 2.95641C3.38342 3.45365 2.95324 4.01542 2.6091 4.62906C2.456 4.54302 2.30544 4.45445 2.15361 4.36716C3.3113 2.3782 5.22561 0.806772 7.4638 0.218435Z" fill="white"/>
<path opacity="0.97" d="M21.8686 0.185423C24.4876 0.186688 27.1067 0.179097 29.7257 0.187953C30.9125 0.181627 32.0614 0.670009 32.9622 1.42536C34.4476 2.69565 35.2801 4.71498 35.06 6.66471C34.9246 7.9932 34.4223 9.32044 33.4633 10.2719C32.6257 11.193 31.4313 11.7282 30.204 11.8611C31.8121 14.389 33.4506 16.8967 35.0474 19.431C34.7842 19.3905 34.4097 19.5284 34.2705 19.2222C32.7041 16.7689 31.1188 14.327 29.5612 11.8673C27.1775 11.8458 24.7926 11.8611 22.4089 11.8585C22.4089 14.3789 22.4114 16.8992 22.4063 19.4209C22.2279 19.4196 22.0483 19.4196 21.8699 19.4209C21.8648 13.0086 21.8674 6.59638 21.8686 0.185423ZM22.4076 0.724416C22.4101 4.25569 22.4076 7.78701 22.4101 11.3195C24.8963 11.3158 27.3825 11.3233 29.8687 11.3158C31.0239 11.3195 32.1474 10.8122 32.9584 9.99987C34.8437 8.15133 35.0917 4.89338 33.476 2.79561C32.6105 1.54429 31.1403 0.715559 29.6068 0.72568C27.208 0.720616 24.8078 0.723151 22.4076 0.724416Z" fill="white"/>
<path opacity="0.97" d="M39.2353 0.190918C39.4163 0.190918 39.5985 0.190918 39.7807 0.190918C39.7819 6.10464 39.7794 12.0197 39.7807 17.9346C39.7794 18.442 39.7516 18.9519 39.8376 19.4542C39.6339 19.4517 39.4302 19.4504 39.2278 19.4491C39.2467 13.0293 39.229 6.60947 39.2353 0.190918Z" fill="white"/>
<path opacity="0.97" d="M13.9341 10.7464C14.2897 10.544 14.6149 10.1999 15.0513 10.2125C15.77 10.2036 16.4886 10.2176 17.2073 10.2125C17.2073 13.2592 17.2073 16.3071 17.2073 19.3539C17.0276 19.3539 16.8479 19.3539 16.6696 19.3539C16.6645 18.2695 16.6746 17.184 16.6645 16.0997C15.4891 17.3788 14.0809 18.5024 12.4108 19.0477C10.2788 19.7562 7.84198 19.6031 5.86316 18.5137C4.69155 17.8887 3.6705 17.0005 2.84683 15.963C3.00245 15.8694 3.15935 15.7758 3.31623 15.6834C4.51441 17.1713 6.17567 18.329 8.05453 18.7529C10.1776 19.2324 12.4766 18.7491 14.2656 17.5205C15.107 16.9423 15.8623 16.2426 16.5329 15.4746C16.6949 15.3279 16.6632 15.0976 16.6734 14.9028C16.6645 13.5186 16.6708 12.1357 16.6683 10.7515C15.7573 10.749 14.8451 10.7566 13.9341 10.7464Z" fill="white"/>
<path opacity="0.97" d="M16.6937 24.0038C20.8171 24.0064 24.9405 23.9987 29.064 24.0076C29.0627 24.1835 29.0627 24.3593 29.0627 24.5353C25.1202 24.553 21.1777 24.5378 17.2352 24.5428C17.234 27.3985 17.2378 30.2554 17.2327 33.1122C20.5983 33.1161 23.9638 33.1122 27.3293 33.1135C27.3293 33.2919 27.3293 33.4716 27.3293 33.6513C23.9651 33.6538 20.6008 33.6526 17.2352 33.6526C17.234 36.846 17.2365 40.0407 17.234 43.2354C17.0531 43.2354 16.8734 43.2354 16.6937 43.2354C16.6924 36.8245 16.6924 30.4148 16.6937 24.0038Z" fill="white"/>
<path opacity="0.97" d="M61.5883 44.1489C61.7755 44.1489 61.9641 44.1489 62.1526 44.1489C62.2285 45.4167 61.9805 46.7199 62.3513 47.9548C62.0172 47.9788 61.606 47.8864 61.6667 47.4626C61.396 47.7624 61.0316 48.0206 60.6065 47.9599C59.8423 47.9294 59.3159 47.1235 59.4272 46.4036C59.4615 45.7823 59.9612 45.1826 60.6103 45.1814C61.0126 45.1472 61.3214 45.4344 61.5997 45.6811C61.5782 45.17 61.5833 44.6601 61.5883 44.1489ZM60.5318 45.7128C60.1155 45.8962 59.9081 46.4213 60.0422 46.8477C60.151 47.3436 60.7545 47.6498 61.2036 47.3829C61.6604 47.1716 61.6313 46.6048 61.5579 46.1885C61.3846 45.8253 60.9316 45.5483 60.5318 45.7128Z" fill="white"/>
<path opacity="0.97" d="M63.4166 44.1504C63.6089 44.1504 63.8012 44.1504 63.9948 44.1516C63.991 44.3642 63.9885 44.5768 63.986 44.7905C63.7962 44.788 63.6089 44.7868 63.4217 44.7868C63.4192 44.5742 63.4166 44.3617 63.4166 44.1504Z" fill="white"/>
<path opacity="0.97" d="M65.145 45.5191C65.7257 45.1737 66.5405 44.9991 67.1061 45.466C67.6982 46.0189 67.2314 46.9096 67.5717 47.56C67.5805 47.6587 67.597 47.8548 67.6056 47.9535C67.3111 47.9497 66.9972 47.9143 66.9125 47.5802C66.5114 47.9003 65.9484 48.1003 65.4587 47.8573C64.9666 47.6296 64.8616 46.8667 65.3006 46.5351C65.7624 46.1821 66.376 46.2694 66.9125 46.3441C66.834 46.1075 66.8201 45.7836 66.5494 45.6798C66.128 45.4939 65.7042 45.7279 65.3259 45.8975C65.2652 45.771 65.2044 45.6444 65.145 45.5191ZM65.6839 46.8034C65.3828 47.0666 65.6726 47.5714 66.0408 47.541C66.3735 47.5967 66.6303 47.3664 66.867 47.1741C66.8683 47.0577 66.8683 46.8249 66.8695 46.7097C66.4811 46.649 66.0167 46.5162 65.6839 46.8034Z" fill="white"/>
<path opacity="0.97" d="M50.6376 45.2304C50.8083 45.2291 50.9804 45.2279 51.1537 45.2266C51.1462 45.4012 51.1399 45.5758 51.1335 45.7517C51.4258 45.3746 51.88 45.0799 52.3773 45.2013C52.6784 45.2304 52.8226 45.5113 52.9529 45.7454C53.2844 45.1937 54.2485 44.8977 54.6268 45.5442C54.8938 46.3008 54.6964 47.132 54.7572 47.9203C54.5737 47.9153 54.3902 47.9115 54.2068 47.9064C54.1916 47.2497 54.2928 46.5703 54.1106 45.9314C53.831 45.4177 53.0984 45.8175 53.0136 46.2768C52.9466 46.8209 52.9985 47.3712 52.9859 47.9178C52.7922 47.9165 52.6 47.9153 52.4076 47.9153C52.3722 47.2573 52.5013 46.5741 52.3279 45.9327C52.066 45.4101 51.3031 45.8238 51.2347 46.2856C51.1803 46.8271 51.2259 47.3724 51.2157 47.9153C51.0222 47.9153 50.8298 47.9165 50.6376 47.9178C50.6388 47.022 50.6388 46.1262 50.6376 45.2304Z" fill="white"/>
<path opacity="0.97" d="M56.01 47.3337C55.4432 46.51 56.0493 45.2056 57.0741 45.1879C57.9585 45.0677 58.6594 45.9027 58.5974 46.7466C57.8535 46.7542 57.1095 46.7416 56.3656 46.7567C56.4744 47.135 56.7312 47.5627 57.1816 47.5412C57.5043 47.588 57.7422 47.3464 57.9636 47.154C58.1154 47.197 58.2685 47.2413 58.4228 47.2869C57.9395 48.1612 56.5174 48.2004 56.01 47.3337ZM56.3681 46.362C56.9311 46.3734 57.4954 46.3747 58.0597 46.343C57.9066 45.9824 57.6371 45.5662 57.1867 45.6054C56.7426 45.5687 56.4592 45.9774 56.3681 46.362Z" fill="white"/>
<path opacity="0.97" d="M63.4166 45.2304C63.6076 45.2291 63.8 45.2278 63.9935 45.2278C63.9923 46.1236 63.9923 47.0206 63.9935 47.9164C63.8 47.9164 63.6076 47.9164 63.4166 47.9164C63.4179 47.0206 63.4179 46.1261 63.4166 45.2304Z" fill="white"/>
<path opacity="0.93" d="M0.00775829 4.0708C2.01569 5.23482 3.97934 6.47476 5.98601 7.64384C7.53465 8.59147 9.11114 9.4936 10.6547 10.4501C7.40052 12.3948 4.13244 14.3205 0.901014 16.3044C0.607481 16.4777 0.312681 16.6511 0.0153495 16.8181C-0.0112206 12.5694 0.00396261 8.31949 0.00775829 4.0708ZM0.627725 5.12095C0.620134 8.67246 0.62646 12.224 0.625195 15.7768C1.07309 15.5111 1.51466 15.2366 1.97014 14.9835C4.4576 13.4234 7.01848 11.9798 9.51854 10.44C6.54778 8.67881 3.60357 6.87456 0.627725 5.12095Z" fill="white"/>
<path opacity="0.93" d="M37.7741 24.0959C39.7833 23.6987 41.9772 23.958 43.722 25.0765C45.6818 26.2152 47.104 28.1396 47.8757 30.2488C48.6539 32.3706 48.6893 34.7568 47.958 36.8976C47.2039 39.1687 45.6274 41.1792 43.5296 42.3546C41.5293 43.5237 39.0203 43.6919 36.8365 42.9695C35.1828 42.3406 33.738 41.212 32.6537 39.819C31.3226 38.0477 30.5938 35.8322 30.6103 33.6168C30.5989 30.7536 31.9009 27.9334 34.0328 26.033C35.1082 25.1132 36.3836 24.3958 37.7741 24.0959ZM37.907 24.621C36.4709 24.931 35.1702 25.7395 34.096 26.7238C32.4664 28.2598 31.4631 30.4107 31.21 32.6262C30.933 35.0757 31.6642 37.6062 33.1458 39.5698C34.4896 41.4284 36.6607 42.6734 38.9584 42.8139C40.5576 42.9948 42.1835 42.5646 43.5575 41.7473C45.3946 40.6693 46.6624 38.8271 47.3861 36.8546C48.0883 34.8795 48.125 32.678 47.4696 30.6853C46.7244 28.4192 45.1631 26.3645 43.0071 25.2827C41.461 24.4362 39.6188 24.2907 37.907 24.621Z" fill="white"/>
<path opacity="0.93" d="M51.3552 24.0723C51.4905 24.0698 51.6247 24.0672 51.7613 24.0647C56.6666 30.1998 61.534 36.3666 66.4444 42.4967C66.4609 36.3527 66.4457 30.2087 66.452 24.0647C66.6342 24.0647 66.8164 24.0647 66.9999 24.0647C66.9973 30.4706 67.0075 36.8765 66.9948 43.2837C66.7582 43.2331 66.4407 43.3495 66.2585 43.1597C61.4745 37.1473 56.6831 31.1387 51.9043 25.1212C51.8941 31.1703 51.903 37.2194 51.9005 43.2685C51.7196 43.2672 51.5387 43.2672 51.359 43.2685C51.3552 36.8701 51.3615 30.4706 51.3552 24.0723Z" fill="white"/>
</g>
</g>
<defs>
<clipPath id="clip0_54_560">
<rect width="67.6056" height="48" fill="white"/>
</clipPath>
</defs>
</svg>
