<svg width="149" height="40" viewBox="0 0 149 40" fill="none" xmlns="http://www.w3.org/2000/svg">
<g clip-path="url(#clip0_54_496)">
<mask id="mask0_54_496" style="mask-type:luminance" maskUnits="userSpaceOnUse" x="0" y="0" width="149" height="40">
<path d="M148.462 0H0V40H148.462V0Z" fill="white"/>
</mask>
<g mask="url(#mask0_54_496)">
<path d="M9.86715 21.7136C9.68492 21.4075 9.52753 21.0874 9.39653 20.7563C9.22107 20.9826 8.97961 21.1493 8.70522 21.2335C8.4293 21.2884 6.07073 21.5025 6.0504 21.5025C5.63503 21.5343 5.20514 21.6008 4.92048 22.0404C4.76007 22.3195 4.61934 22.6094 4.49931 22.908C4.27277 23.4499 4.01078 23.9764 3.71505 24.4842C3.71505 24.4842 2.89592 25.693 2.79717 25.8203C2.69841 25.9476 2.74779 26.0777 2.79717 26.2367L2.84074 26.4074C2.81668 26.6219 2.75473 26.8304 2.65775 27.0234V27.0726L3.28515 27.8852L3.32581 27.9026L3.36358 27.8852L4.14494 26.8961V26.8383L3.89223 26.4883L3.72085 26.2773L3.76151 26.1703C3.96775 26.1384 4.08684 26.0922 4.11008 26.0401C4.14418 25.909 4.15596 25.7731 4.14494 25.6381C4.11638 25.2887 4.17631 24.9377 4.31921 24.6172C4.6025 24.2104 4.91407 23.8238 5.25161 23.4604C5.35038 23.3534 5.44332 23.2493 5.56822 23.1018C5.81221 22.7981 5.92841 22.8126 6.06783 22.7923C6.65825 22.8037 7.24446 22.8941 7.81061 23.0613C8.33922 23.2522 9.82645 23.3997 11.0929 23.2406C10.9709 23.0323 10.3667 22.4771 9.86715 21.7136Z" fill="white"/>
<path d="M22.8451 25.2418C22.1219 24.7675 21.2359 24.218 20.8292 24.1052C20.4952 24.0098 19.9579 24.137 19.435 24.2903C19.7053 24.5206 19.9064 24.8209 20.016 25.1579C20.079 25.3151 20.1507 25.4685 20.2309 25.6178C20.3999 25.9071 20.5944 26.1809 20.8119 26.4362C21.1023 26.7862 21.3318 27.0638 21.3463 27.4687C21.3609 27.8735 20.9396 29.1287 20.5504 29.8402C20.2105 30.4619 19.7662 31.156 19.4989 31.5754C19.4031 31.7229 19.3334 31.8357 19.2985 31.8935C19.2457 31.9851 19.2029 32.0821 19.1707 32.1827C19.1416 32.3006 19.086 32.4104 19.0081 32.5037C18.8715 32.631 18.6362 32.7929 18.5869 32.845L18.3487 32.8797H18.3196L17.669 33.5854V33.6374L17.7125 33.6663H19.0952L19.1359 33.6432L19.3972 33.2383V33.0909L19.5135 32.952C19.5599 32.952 19.6761 32.952 19.8039 32.952L19.8388 32.9318C20.2195 32.2822 20.5515 31.6055 20.8322 30.9073C20.96 30.6181 21.0588 30.3868 21.1226 30.2826C21.6379 29.3496 22.2409 28.4675 22.9235 27.648C23.1104 27.4396 23.274 27.2118 23.4115 26.9683C23.4464 26.8498 23.3679 26.737 23.2575 26.5837C22.9638 26.1997 22.8175 25.7238 22.8451 25.2418Z" fill="white"/>
<path d="M15.3861 40L15.2031 39.8728C15.1885 39.8409 13.8292 36.5932 5.80937 36.5932C1.95487 36.5932 2.30099e-05 34.6324 2.30099e-05 30.7628V0.196682C-0.000762734 0.145779 0.0186025 0.0966138 0.0539326 0.0598141C0.0892623 0.0230139 0.137719 0.00153555 0.188827 2.19137e-05H30.5717C30.5978 -0.000368129 30.6236 0.00445219 30.6478 0.0141972C30.6718 0.0239422 30.6938 0.0384134 30.7122 0.0567532C30.7306 0.075093 30.7452 0.0969277 30.755 0.120964C30.7648 0.145 30.7696 0.170748 30.7692 0.196682V30.7628C30.7692 34.6324 28.8144 36.5932 24.9598 36.5932C16.9023 36.5932 15.5836 39.8409 15.5691 39.8728L15.3832 40M0.816239 0.942831V30.4418C0.816239 33.9961 2.53871 35.4248 6.0766 35.4248C12.7573 35.4248 14.8284 37.2121 15.3715 38.0739C15.9235 37.2063 18.0032 35.4248 24.6665 35.4248C28.2073 35.4248 29.9268 33.9961 29.9268 30.4418V0.942831H0.816239Z" fill="white"/>
<path d="M27.2955 29.8983C27.1125 28.9005 27.0283 27.9259 26.9673 27.2173C26.956 26.8412 26.9064 26.4671 26.8192 26.101C26.6396 25.8766 26.4259 25.6814 26.1859 25.5226C25.7561 25.1842 25.2216 24.7649 25.1519 24.4843C24.9137 23.5213 25.0212 22.5466 25.117 21.6877C25.1843 21.2175 25.2106 20.7424 25.1955 20.2677C25.0145 20.1306 24.8428 19.9818 24.6813 19.8223C24.8356 19.9266 25.0051 20.0066 25.1839 20.0595C25.3712 20.1223 25.5672 20.1555 25.7648 20.1578C25.9142 20.1593 26.0629 20.1388 26.2063 20.0971C26.2845 20.0826 26.3589 20.0523 26.4249 20.008C26.4908 19.9637 26.5469 19.9064 26.5897 19.8397L26.5606 19.776C26.1459 19.5691 25.7828 19.2727 25.4975 18.9084C25.2952 18.6528 25.053 18.4312 24.7801 18.252C24.5721 18.1628 24.3534 18.1006 24.1295 18.0669L23.9726 18.035C23.9465 18.035 23.8709 17.9917 23.7751 17.9483C23.3859 17.7632 22.4738 17.3323 21.6082 17.3439C20.8832 17.373 20.1626 17.4698 19.4559 17.633C18.9582 17.7573 18.4468 17.8185 17.9338 17.8153C17.5143 17.7846 17.0935 17.7759 16.6732 17.7892C15.8715 17.7892 15.2876 17.8095 14.7183 17.315C13.7452 16.4733 14.0764 15.2095 14.4598 13.7461C14.7305 12.8813 14.8763 11.9825 14.8926 11.0768C14.6699 11.0201 14.4599 10.922 14.2739 10.7876C14.5135 10.8593 14.7615 10.9002 15.0117 10.909C15.325 10.9211 15.6382 10.881 15.9382 10.7905C16.2 10.697 16.4285 10.529 16.5952 10.3074C16.7621 10.0858 16.8599 9.82042 16.8765 9.54396C16.8765 9.42542 16.8155 9.3965 16.7835 9.3878C16.3924 9.3768 16.0015 9.41865 15.6217 9.51219L15.1308 9.59896C15.8162 9.36465 16.4692 9.04496 17.074 8.64742C17.1772 8.56996 17.2906 8.50665 17.4109 8.4595H17.5213C17.9019 8.4855 18.9098 8.5578 19.1915 7.74227L19.1538 7.63521L19.0434 7.65546L19.0202 7.68149C18.8952 7.83834 18.7316 7.96019 18.5453 8.03519C18.3589 8.11019 18.1562 8.1358 17.957 8.1095L18.1487 7.94757C18.4889 7.67504 18.7925 7.36012 19.0521 7.01053C19.2438 6.77338 19.8741 5.85371 20.0368 4.06063C20.0368 3.97387 20.0368 3.89 20.0368 3.80613C20.0368 3.72227 20.0368 3.6384 20.0368 3.56031C20.0862 3.14964 20.1007 2.37747 19.6824 1.87713L19.5517 1.854L19.5081 1.97547L19.5517 2.07669C19.7284 2.40813 19.7955 2.78667 19.7434 3.15832C19.735 3.2206 19.7065 3.27847 19.6621 3.32317L19.6272 3.29135L19.5923 3.23351C19.447 2.96801 19.203 2.76973 18.9126 2.68113L18.8023 2.7274L18.8342 2.85465C19.0582 3.02377 19.2397 3.24245 19.3642 3.49342C19.4888 3.74439 19.5529 4.02076 19.5517 4.30067C19.546 5.00745 19.3374 5.69785 18.9504 6.29041L18.8168 6.39741C18.7674 6.39741 18.7064 6.37428 18.6077 6.2962C18.4305 6.15737 17.9222 5.26083 18.3869 4.1445L18.3405 4.00858L18.201 4.06931C17.9576 4.45347 17.836 4.9017 17.8521 5.35563C17.8682 5.80957 18.0211 6.24817 18.2911 6.61432L18.3811 6.77049C18.4215 6.85407 18.4337 6.9484 18.4159 7.03945C18.3811 7.17827 17.5445 7.85788 17.2541 7.99388C17.0807 8.08365 16.8803 8.10734 16.6905 8.06034C16.4495 7.97073 15.2382 7.0597 15.7146 5.19721L15.6769 5.07286L15.5607 5.13648C15.1046 6.34536 15.2905 7.36625 16.1212 8.17319L16.1852 8.24257L16.2171 8.38427L16.098 8.50865C15.6721 8.74519 15.1881 8.85842 14.7009 8.83542C14.5521 8.77711 14.4239 8.6765 14.332 8.54619C14.1464 8.30873 14.0147 8.03396 13.946 7.74088C13.8773 7.44778 13.8732 7.14337 13.9341 6.84857L13.8556 6.73868L13.7365 6.81387C13.6186 7.14824 13.5808 7.50544 13.6262 7.85696C13.6716 8.2085 13.7989 8.5445 13.9979 8.83834L14.0851 8.9945C14.0009 9.08996 12.8506 9.13911 12.6909 9.0408C11.4564 8.29173 10.8638 6.54202 10.9045 5.74381C10.9742 4.29779 11.3663 3.2017 12.0663 2.48447V2.3659H11.9269C11.0235 3.07734 10.8115 3.93628 10.6692 4.75473C10.6662 4.80332 10.6527 4.85069 10.6296 4.89361C10.6066 4.93653 10.5745 4.974 10.5355 5.00344L10.3555 4.9832C10.3555 4.9832 9.75132 4.62748 9.91109 3.55453L9.84716 3.45041L9.74555 3.50826C9.62293 3.81312 9.60247 4.14927 9.68724 4.46663C9.77209 4.78399 9.95755 5.0656 10.2161 5.26951L10.2364 5.28976C10.3249 5.37277 10.3901 5.47748 10.4252 5.59343C10.5023 5.94511 10.5442 6.30356 10.5501 6.66348L10.4107 6.85147L10.2712 6.81966C10.1454 6.73457 10.0389 6.62424 9.95832 6.49576C9.87778 6.36727 9.82509 6.22344 9.80362 6.0735L9.70485 5.99831L9.63224 6.12846C9.65785 6.34962 9.73924 6.56075 9.8687 6.74226C9.99816 6.92377 10.1716 7.06977 10.3729 7.1667L10.431 7.2014C10.5508 7.28301 10.6501 7.39085 10.7215 7.51664C10.9393 7.93019 11.1455 8.2628 11.2589 8.44211L11.3199 8.54334C11.3471 8.5775 11.3662 8.61734 11.3757 8.65996C11.3853 8.7025 11.3851 8.74673 11.375 8.78919L11.2705 8.85565C11.0962 8.8875 10.6372 8.97427 10.1086 8.36111L9.99532 8.33804L9.96624 8.45657C10.3149 9.21719 11.0207 9.22011 11.3954 9.22296C11.4679 9.2258 11.54 9.2365 11.6103 9.2548C11.7965 9.29488 11.9635 9.39688 12.0838 9.54396C11.9287 9.53719 11.7734 9.5508 11.6219 9.5845C11.5174 9.61627 11.4738 9.70596 11.4273 9.7898C11.4082 9.84657 11.3762 9.89827 11.3339 9.9408C11.2916 9.98342 11.2401 10.0159 11.1833 10.0357C10.8929 10.1282 9.40278 10.4955 9.25462 10.5302C9.05132 10.5764 9.17039 11.554 9.17332 11.5626C9.33647 11.7972 9.58585 11.9582 9.86755 12.0109C10.3115 12.0203 10.7492 12.1187 11.1543 12.3001L11.2618 12.3464L11.3431 12.3811C11.4792 12.4392 11.6189 12.4885 11.7614 12.5286C11.9385 12.569 12.1942 12.6124 12.1942 12.6124C12.0009 12.628 11.8065 12.628 11.6132 12.6124L11.4041 12.5864C11.5464 13.4772 10.8405 14.5357 10.0941 15.5508C9.3127 16.6122 8.51101 18.223 9.12393 19.86C9.20524 20.0884 9.29532 20.2909 9.38532 20.4846C9.57955 20.9528 9.82709 21.3972 10.1231 21.8092C10.3555 22.0753 10.8522 22.6045 11.0933 22.859C11.0933 22.6594 11.0119 22.1244 11.0119 22.1244L11.3838 23.342C11.4186 23.4258 11.4505 23.5155 11.4854 23.608C11.558 23.8105 11.6365 24.0187 11.7265 24.2125C11.8526 24.4783 11.9982 24.7344 12.1622 24.9789C12.3163 25.1897 12.4251 25.43 12.4817 25.6845C12.5195 25.9072 12.5079 26.9166 12.5049 27.3503V27.5297C12.5305 27.6926 12.5784 27.8512 12.6473 28.001C12.7235 28.1697 12.7772 28.3477 12.807 28.5303V31.3992C12.7906 31.5217 12.7522 31.6402 12.6938 31.7492L12.6531 31.862C12.6531 31.8822 12.6531 32.209 12.6269 32.3594C12.6095 32.4688 12.5689 32.5733 12.5079 32.666L12.1883 32.7961L12.1651 32.8134L11.6219 33.6059V33.6579L11.6655 33.684H13.0626L13.112 33.6406L13.1585 33.0622V33.0274L13.0742 32.9176L13.1905 32.7383C13.3125 32.7383 13.5913 32.7383 13.661 32.666C13.7307 32.5936 13.7045 32.4693 13.661 32.0875C13.6407 31.9111 13.6175 31.7289 13.6175 31.5988V31.2343C13.6175 30.4651 13.6175 28.8629 13.6175 28.6055C13.6312 28.4907 13.6555 28.3775 13.6901 28.2671C13.7511 28.0622 13.7852 27.8503 13.7917 27.6367C13.7917 27.3677 13.8963 26.558 13.9341 25.9014C13.9564 25.526 14.0367 25.1563 14.1722 24.8053C14.3059 24.4438 14.4075 24.091 14.727 24.0332C15.1378 24.0301 15.5468 24.0866 15.9412 24.2009C16.4418 24.3273 16.9534 24.4058 17.469 24.4352C17.7958 24.4256 18.1217 24.3967 18.445 24.3484C18.7645 24.2732 19.1305 24.146 19.2496 24.1083C19.7521 23.9406 20.5625 23.5676 21.0737 23.7382C21.4078 23.8481 22.5029 24.7533 23.2377 25.3837C23.5691 25.6002 23.8882 25.8348 24.1933 26.0865C24.7075 26.5174 25.5672 27.2433 25.7851 27.6887C26.1831 28.5274 26.366 29.424 26.6565 30.8093C26.7344 31.2183 26.7742 31.6336 26.7756 32.05C26.7764 32.1549 26.8122 32.2566 26.8772 32.3391L26.9586 32.504C26.976 32.5965 26.9586 32.825 26.8976 32.8626L26.5432 33.1287V33.146L26.3022 33.6406V33.6868L26.3428 33.71H27.5279L27.5773 33.6695L27.6877 33.0477V33.0217L27.6179 32.851L27.6586 32.6081C27.7787 32.5209 27.8779 32.4083 27.9491 32.2784V32.2408C27.6573 31.4823 27.4385 30.698 27.2955 29.8983ZM12.3539 10.6083C12.2483 10.6212 12.1411 10.6062 12.0431 10.5649C12.0684 10.502 12.1077 10.4457 12.158 10.4001C12.2083 10.3545 12.2683 10.3209 12.3335 10.3017C12.4904 10.2757 12.624 10.455 12.6415 10.4868C12.5606 10.556 12.4601 10.5984 12.3539 10.6083Z" fill="white"/>
<path d="M41.6038 3.04321H49.0488V11.7389H46.9921V4.87987H43.6639V11.7389H41.6038V3.04321Z" fill="white"/>
<path d="M50.3723 3.04321H53.7185C55.8797 3.04321 56.9319 4.22322 56.9319 6.02412C56.9319 7.82502 55.8797 9.00502 53.7185 9.00502H52.344V11.7389H50.3629L50.3723 3.04321ZM53.7912 7.18137C54.0878 7.18137 54.3723 7.06013 54.5821 6.84432C54.7919 6.62851 54.9097 6.33582 54.9097 6.03062C54.9097 5.72542 54.7919 5.43272 54.5821 5.21691C54.3723 5.00111 54.0878 4.87987 53.7912 4.87987H52.344V7.18137H53.7912Z" fill="white"/>
<path d="M66.5667 11.7389H64.3957L63.7101 9.90148H60.2267L59.5411 11.7389H57.3701L60.8045 3.04321H63.1127L66.5667 11.7389ZM63.0213 8.06094L61.9602 5.26428L60.9024 8.06094H63.0213Z" fill="white"/>
<path d="M67.4454 3.04321H71.3886C73.1598 3.04321 74.2047 3.97327 74.2047 5.43988C74.2094 5.77481 74.1196 6.10438 73.9454 6.3916C73.7713 6.67882 73.5197 6.91231 73.2189 7.06584C73.6 7.253 73.9185 7.54481 74.1365 7.90641C74.3545 8.26794 74.4625 8.68402 74.4478 9.10479C74.4478 10.7698 73.4062 11.7389 71.3853 11.7389H67.4421L67.4454 3.04321ZM71.2013 6.34717C71.7665 6.34717 72.0951 6.05124 72.0951 5.55371C72.0951 5.05616 71.7665 4.74397 71.2013 4.74397H69.5058V6.34717H71.2013ZM71.2408 10.0543C71.3823 10.0656 71.5246 10.0477 71.6588 10.0018C71.793 9.95587 71.9161 9.88302 72.0205 9.78771C72.1248 9.69241 72.2081 9.57671 72.2651 9.44802C72.322 9.31925 72.3514 9.18025 72.3514 9.03979C72.3514 8.89925 72.322 8.76025 72.2651 8.63156C72.2081 8.50279 72.1248 8.38717 72.0205 8.29187C71.9161 8.19656 71.793 8.12364 71.6588 8.07771C71.5246 8.03187 71.3823 8.01394 71.2408 8.02517H69.5058V10.0543H71.2408Z" fill="white"/>
<path d="M82.7708 3.04321V11.7389H80.7723V6.619L77.1277 11.7259H75.3253V3.04321H77.3115V8.1631L80.9654 3.04321H82.7708Z" fill="white"/>
<path d="M86.1331 4.87661H83.6462V3.04321H90.6531V4.87987H88.1823V11.7389H86.1331V4.87661Z" fill="white"/>
<path d="M91.5284 3.04321H97.5584V4.87987H93.5777V6.45971H97.3061V8.29964H93.5777V9.90217H97.66V11.7389H91.5284V3.04321Z" fill="white"/>
<path d="M98.5361 9.80041H98.9277C99.5046 9.80041 99.8123 9.40633 99.8738 8.75917L100.365 3.04321H106.419V11.6139H104.395V4.85347H102.228L101.885 8.76233C101.698 10.7841 100.682 11.7389 98.9277 11.7389H98.5361V9.80041Z" fill="white"/>
<path d="M109.718 3.04321V5.97104H111.181C113.058 5.97104 114.302 7.1129 114.302 8.85656C114.302 10.6003 113.058 11.7389 111.181 11.7389H107.733V3.04321H109.718ZM109.718 9.90733H111.158C111.906 9.90733 112.282 9.45841 112.282 8.8631C112.282 8.26779 111.906 7.81556 111.158 7.81556H109.718V9.90733Z" fill="white"/>
<path d="M115.177 7.38946C115.177 4.78361 117.047 3.04321 119.515 3.04321C121.337 3.04321 123.048 3.91499 123.498 5.73751L121.545 6.29342C121.337 5.49431 120.567 4.95101 119.515 4.95101C118.208 4.95101 117.278 5.93018 117.278 7.38946C117.278 8.84871 118.217 9.83102 119.515 9.83102C120.567 9.83102 121.337 9.28779 121.555 8.48864L123.498 9.04456C123.048 10.8671 121.337 11.7389 119.515 11.7389C117.047 11.7389 115.177 9.98587 115.177 7.38946Z" fill="white"/>
<path d="M126.415 4.87661H123.936V3.04321H130.943V4.87987H128.47V11.7389H126.422L126.415 4.87661Z" fill="white"/>
<path d="M131.825 3.04321H135.767C137.537 3.04321 138.578 3.97327 138.578 5.43988C138.583 5.77481 138.493 6.10438 138.319 6.3916C138.145 6.67882 137.894 6.91231 137.593 7.06584C137.975 7.25253 138.294 7.54414 138.512 7.90579C138.731 8.26741 138.839 8.68371 138.825 9.10479C138.825 10.7698 137.78 11.7389 135.76 11.7389H131.819L131.825 3.04321ZM135.58 6.34717C136.142 6.34717 136.47 6.05124 136.47 5.55371C136.476 5.43941 136.457 5.32512 136.414 5.21906C136.37 5.11301 136.303 5.01782 136.218 4.94037C136.133 4.86292 136.032 4.80513 135.922 4.77117C135.811 4.73721 135.694 4.72792 135.58 4.74397H133.882V6.34717H135.58ZM135.616 10.0543C135.758 10.0656 135.899 10.0477 136.034 10.0018C136.168 9.95587 136.291 9.88302 136.395 9.78771C136.499 9.69241 136.583 9.57671 136.64 9.44802C136.697 9.31925 136.726 9.18025 136.726 9.03979C136.726 8.89925 136.697 8.76025 136.64 8.63156C136.583 8.50279 136.499 8.38717 136.395 8.29187C136.291 8.19656 136.168 8.12364 136.034 8.07771C135.899 8.03187 135.758 8.01394 135.616 8.02517H133.882V10.0543H135.616Z" fill="white"/>
<path d="M139.265 7.38946C139.265 4.78361 141.219 3.04321 143.858 3.04321C146.496 3.04321 148.462 4.78361 148.462 7.38946C148.462 9.99533 146.496 11.7389 143.858 11.7389C141.219 11.7389 139.265 9.98587 139.265 7.38946ZM146.281 7.38946C146.281 5.93018 145.285 4.95101 143.858 4.95101C142.431 4.95101 141.435 5.93018 141.435 7.38946C141.435 8.84871 142.431 9.83102 143.858 9.83102C145.285 9.83102 146.281 8.85502 146.281 7.38946Z" fill="white"/>
<path d="M42.0417 17.8259H42.5551V21.0545H46.7738V17.8259H47.297V24.7824H46.7738V21.5313H42.5551V24.7696H42.0417V17.8259Z" fill="white"/>
<path d="M55.1802 17.8259V24.7824H54.6516V18.6515L50.0589 24.7824H49.4869V17.8259H50.0054V23.9505L54.6082 17.8259H55.1802Z" fill="white"/>
<path d="M58.9378 21.3458L56.2398 17.8259H56.9118L59.4262 21.1249H60.6096V17.8259H61.1276V21.1249H62.3208L64.8451 17.8259H65.5172L62.8093 21.3458L65.6908 24.7824H65.009L62.3208 21.6113H61.1375V24.7824H60.6195V21.6113H59.436L56.7479 24.7824H56.0562L58.9378 21.3458Z" fill="white"/>
<path d="M67.0049 17.8259H71.3466V18.3132H67.5052V21.0605H71.3152V21.5382H67.5052V24.2952H71.3844V24.7824H67.0049V17.8259Z" fill="white"/>
<path d="M73.1356 17.8259H77.0769V18.3122H73.6227V24.7824H73.1356V17.8259Z" fill="white"/>
<path d="M77.9531 21.2839C77.9531 19.2066 79.4531 17.8259 81.4585 17.8259C83.4638 17.8259 84.9608 19.2066 84.9608 21.2839C84.9608 23.3612 83.4508 24.7824 81.4585 24.7824C79.4661 24.7824 77.9531 23.3612 77.9531 21.2839ZM84.4061 21.2839C84.4061 19.4959 83.1369 18.3172 81.4585 18.3172C79.7808 18.3172 78.5069 19.4959 78.5069 21.2839C78.5069 23.0721 79.7677 24.2879 81.4585 24.2879C83.1492 24.2879 84.4061 23.0782 84.4061 21.2839Z" fill="white"/>
<path d="M86.7216 17.8259H89.3108C90.67 17.8259 91.5293 18.6607 91.5293 20.0008C91.5293 21.3409 90.6608 22.1693 89.3108 22.1693H87.2V24.7824H86.7123L86.7216 17.8259ZM89.2731 21.6799C90.387 21.6799 90.9916 21.0755 90.9916 20.0008C90.9916 18.9262 90.387 18.3121 89.2731 18.3121H87.2V21.6799H89.2731Z" fill="white"/>
<path d="M92.8423 21.2839C92.8423 19.2066 94.3431 17.8259 96.3454 17.8259C98.3484 17.8259 99.8492 19.2066 99.8492 21.2839C99.8492 23.3612 98.3392 24.7824 96.3454 24.7824C94.3523 24.7824 92.8423 23.3612 92.8423 21.2839ZM99.2946 21.2839C99.2946 19.4959 98.0277 18.3172 96.3454 18.3172C94.6638 18.3172 93.3961 19.4959 93.3961 21.2839C93.3961 23.0721 94.6538 24.2879 96.3454 24.2879C98.0377 24.2879 99.2946 23.0782 99.2946 21.2839Z" fill="white"/>
<path d="M100.725 24.3989H101.183C101.994 24.3989 102.393 23.9242 102.465 22.9945L102.874 17.8259H107.235V24.3989H108.17V26.5215H107.659V24.8962H101.249V26.5215H100.738L100.725 24.3989ZM106.723 24.3989V18.32H103.355L102.976 23.027C102.986 23.5355 102.795 24.0277 102.442 24.3989H106.723Z" fill="white"/>
<path d="M109.047 21.2839C109.047 19.2066 110.552 17.8259 112.478 17.8259C114.064 17.8259 115.287 18.6469 115.606 19.8255L115.106 20.0182C114.845 19.0418 113.815 18.3172 112.478 18.3172C110.842 18.3172 109.599 19.4959 109.599 21.2839C109.599 23.0721 110.842 24.2879 112.478 24.2879C113.822 24.2879 114.855 23.5634 115.116 22.5869L115.616 22.7797C115.293 23.9583 114.064 24.7824 112.478 24.7824C110.552 24.7824 109.047 23.3612 109.047 21.2839Z" fill="white"/>
<path d="M116.958 17.8259H117.444V21.1249H118.562L120.962 17.8259H121.585L119.01 21.3458L121.747 24.7824H121.099L118.546 21.6113H117.415V24.7824H116.93L116.958 17.8259Z" fill="white"/>
<path d="M123.061 21.2839C123.061 19.2066 124.562 17.8259 126.565 17.8259C128.568 17.8259 130.068 19.2066 130.068 21.2839C130.068 23.3612 128.558 24.7824 126.565 24.7824C124.572 24.7824 123.061 23.3612 123.061 21.2839ZM129.514 21.2839C129.514 19.4959 128.247 18.3172 126.565 18.3172C124.882 18.3172 123.615 19.4959 123.615 21.2839C123.615 23.0721 124.873 24.2879 126.565 24.2879C128.256 24.2879 129.514 23.0782 129.514 21.2839Z" fill="white"/>
<path d="M137.512 17.8975V24.7825H136.995V18.7146L132.39 24.7825H131.819V17.8975H132.323V23.9591L136.918 17.8975H137.512ZM133.364 15.6521H133.778C133.767 15.768 133.782 15.8847 133.822 15.9949C133.861 16.1051 133.924 16.2063 134.007 16.292C134.09 16.3778 134.191 16.4463 134.303 16.4931C134.415 16.5399 134.536 16.5642 134.659 16.5642C134.782 16.5642 134.903 16.5399 135.015 16.4931C135.127 16.4463 135.228 16.3778 135.311 16.292C135.394 16.2063 135.457 16.1051 135.496 15.9949C135.535 15.8847 135.551 15.768 135.54 15.6521H135.957C135.966 15.8189 135.939 15.9857 135.878 16.1423C135.817 16.299 135.723 16.4423 135.602 16.5633C135.48 16.6843 135.335 16.7808 135.172 16.8466C135.011 16.9125 134.837 16.9465 134.661 16.9465C134.485 16.9465 134.311 16.9125 134.148 16.8466C133.987 16.7808 133.841 16.6843 133.72 16.5633C133.598 16.4423 133.505 16.299 133.443 16.1423C133.382 15.9857 133.355 15.8189 133.364 15.6521Z" fill="white"/>
<path d="M41.6038 32.1531C41.6038 30.0758 43.1037 28.6951 45.1057 28.6951C47.1077 28.6951 48.6109 30.0758 48.6109 32.1531C48.6109 34.2305 47.1013 35.6516 45.1057 35.6516C43.1102 35.6516 41.6038 34.2305 41.6038 32.1531ZM48.057 32.1531C48.057 30.3681 46.7871 29.1895 45.1057 29.1895C43.4244 29.1895 42.1578 30.3681 42.1578 32.1531C42.1578 33.9381 43.4147 35.1603 45.1057 35.1603C46.7967 35.1603 48.057 33.9506 48.057 32.1531Z" fill="white"/>
<path d="M50.3629 28.6951H54.5582V29.1812H50.8522V31.3274H52.9704C54.3247 31.3274 55.1802 32.1525 55.1802 33.4863C55.1802 34.82 54.3183 35.6516 52.9704 35.6516H50.3629V28.6951ZM52.923 35.1655C54.0405 35.1655 54.6466 34.5481 54.6466 33.4863C54.6466 32.4245 54.0405 31.8168 52.923 31.8168H50.8522V35.1655H52.923Z" fill="white"/>
<path d="M56.0562 35.1417H56.2379C57.0234 35.1417 57.4194 34.6128 57.4875 33.7315L57.8932 28.6951H62.1873V35.5415H61.6745V29.1861H58.3282L57.9647 33.7441C57.8738 34.956 57.3155 35.6516 56.2088 35.6516H56.0562V35.1417Z" fill="white"/>
<path d="M70.0705 35.6516H69.5121L68.7162 33.7838H64.8652L64.0694 35.6516H63.5014L66.5083 28.6951H67.0763L70.0705 35.6516ZM68.5044 33.3136L66.7907 29.3091L65.0674 33.3136H68.5044Z" fill="white"/>
<path d="M70.9458 32.1531C70.9458 30.0758 72.45 28.6951 74.3772 28.6951C75.9622 28.6951 77.1854 29.5161 77.5046 30.6947L77.0046 30.8875C76.7434 29.911 75.7136 29.1895 74.3772 29.1895C72.7438 29.1895 71.4978 30.3681 71.4978 32.1531C71.4978 33.9381 72.7438 35.1603 74.3772 35.1603C75.7201 35.1603 76.753 34.4326 77.0139 33.4592L77.5146 33.6521C77.1916 34.8306 75.9622 35.6516 74.3772 35.6516C72.45 35.6516 70.9458 34.2305 70.9458 32.1531Z" fill="white"/>
<path d="M80.7638 29.1812H78.3907V28.6951H83.6461V29.1812H81.2823V35.6516H80.7638V29.1812Z" fill="white"/>
<path d="M90.6523 28.6951V35.6516H90.1262V29.5203L85.5262 35.6516H84.9592V28.6951H85.4762V34.8168L90.0623 28.6951H90.6523Z" fill="white"/>
</g>
</g>
<defs>
<clipPath id="clip0_54_496">
<rect width="148.462" height="40" fill="white"/>
</clipPath>
</defs>
</svg>
