<svg width="74" height="40" viewBox="0 0 74 40" fill="none" xmlns="http://www.w3.org/2000/svg">
<g clip-path="url(#clip0_54_415)">
<mask id="mask0_54_415" style="mask-type:luminance" maskUnits="userSpaceOnUse" x="0" y="0" width="74" height="40">
<path d="M73.1707 0H0V39.6324H73.1707V0Z" fill="white"/>
</mask>
<g mask="url(#mask0_54_415)">
<path d="M16.4817 0.00455802C29.9356 0.0208141 43.3896 -0.027954 56.8434 0.0269103C62.2649 6.64112 67.719 13.2248 73.1707 19.8126C67.7288 26.4105 62.2629 32.9882 56.8454 39.6044C43.3916 39.6613 29.9356 39.6105 16.4817 39.6308C10.9708 33.041 5.50878 26.4105 0 19.8187C5.50473 13.2228 10.9729 6.59639 16.4817 0.00455802ZM17.1441 2.31699C12.318 8.12044 7.48795 13.9218 2.64568 19.713C7.53268 25.6709 12.3953 31.6491 17.2924 37.5988C30.1347 37.5948 42.9771 37.5988 55.8215 37.5968C60.739 31.6897 65.6868 25.8091 70.6268 19.9203C65.7029 13.9645 60.8078 7.98429 55.8761 2.03454C43.1376 2.04063 30.3989 2.03251 17.6602 2.0386C17.4347 2.02438 17.264 2.11785 17.1441 2.31699Z" fill="white"/>
<path d="M15.0472 10.9772C16.6098 10.9854 18.1744 10.963 19.737 10.9854C20.9604 11.026 22.2771 11.6214 22.7729 12.8081C23.7401 14.706 23.3236 17.5528 21.2875 18.5688C21.6817 18.8818 22.1816 19.1805 22.275 19.721C22.8603 21.9034 22.8521 24.1914 23.1772 26.4206C22.4315 26.4206 21.6878 26.4206 20.9461 26.4206C20.7632 24.6649 20.6169 22.9072 20.4401 21.1515C20.367 20.7147 20.2918 20.2147 19.9301 19.9161C19.2087 19.2597 18.1582 19.5869 17.2824 19.5137C17.2824 21.816 17.2824 24.1183 17.2824 26.4206C16.5366 26.4206 15.7929 26.4206 15.0472 26.4206C15.0472 21.2734 15.0472 16.1243 15.0472 10.9772ZM17.2824 12.9097C17.2824 14.3991 17.2824 15.8886 17.2824 17.3781C18.083 17.3618 18.8856 17.4147 19.6863 17.3578C20.3588 17.3049 20.7876 16.6669 20.9461 16.0695C21.1473 15.1408 21.0701 14.0659 20.4483 13.3039C19.54 12.6272 18.3289 13.0031 17.2824 12.9097Z" fill="white"/>
<path d="M43.6985 10.9775C44.3752 10.9775 45.0519 10.9775 45.7306 10.9775C45.7265 12.7251 45.7387 14.4726 45.7245 16.2181C46.6734 15.1574 48.3072 14.8404 49.5893 15.45C50.6503 16.0555 51.1985 17.287 51.2029 18.4777C51.2351 21.1234 51.2068 23.7731 51.2171 26.4209C50.5385 26.4209 49.8615 26.4209 49.1849 26.4209C49.179 23.9743 49.1932 21.5298 49.181 19.0852C49.1912 18.2257 48.7014 17.2361 47.7727 17.102C46.7669 16.8663 45.8017 17.7035 45.7265 18.6931C45.7326 21.2697 45.7306 23.8442 45.7306 26.4209C45.0519 26.4209 44.3752 26.4209 43.6985 26.4209C43.6985 21.2737 43.6985 16.1246 43.6985 10.9775Z" fill="white"/>
<path d="M27.5275 15.3642C29.2629 14.8765 31.1892 15.8681 31.9187 17.4877C32.6685 18.9324 32.3535 20.6068 32.4247 22.1674C32.4734 23.4354 32.004 24.7074 31.1465 25.6401C29.9232 26.7476 27.9461 26.965 26.54 26.0831C25.146 25.3414 24.4856 23.6711 24.4937 22.1552C24.5161 21.0741 24.4409 19.9911 24.5466 18.9141C24.705 17.2845 25.8938 15.7279 27.5275 15.3642ZM27.6941 17.3231C26.5562 17.8148 26.5013 19.2515 26.5257 20.3182C26.5644 21.4541 26.3672 22.6693 26.9017 23.7239C27.4808 24.8821 29.4234 24.8862 30.0107 23.734C30.5146 22.7384 30.3662 21.5903 30.3906 20.5154C30.3744 19.7147 30.4455 18.8572 30.0533 18.1277C29.6794 17.2499 28.5252 16.9594 27.6941 17.3231Z" fill="white"/>
<path d="M36.4707 15.527C37.6005 15.0007 38.9884 15.0027 40.1039 15.5697C41.2338 16.2158 41.8657 17.4472 42.073 18.699C41.4024 18.8676 40.7319 19.0363 40.0592 19.2029C39.9211 18.5811 39.7585 17.8943 39.2342 17.4777C38.4093 16.8945 37.0255 17.1546 36.615 18.1259C36.1436 19.1318 36.3102 20.2657 36.2797 21.3385C36.2635 22.1859 36.2797 23.0881 36.7206 23.842C37.2205 24.6304 38.393 24.8133 39.1692 24.3439C39.7341 23.9294 39.9251 23.2161 40.0511 22.5638C40.7258 22.7325 41.4003 22.9012 42.077 23.0637C41.8698 24.0391 41.5202 25.0409 40.738 25.7053C39.602 26.8433 37.7122 27.0241 36.3285 26.256C34.9914 25.5611 34.3066 24.0066 34.2497 22.5578C34.2518 21.4097 34.2335 20.2596 34.2598 19.1115C34.3757 17.6728 35.1093 16.161 36.4707 15.527Z" fill="white"/>
<path d="M54.7463 15.7219C55.9537 15.1408 57.4834 15.0209 58.6541 15.7524C59.2107 16.1283 59.802 16.5449 60.042 17.2053C60.6556 18.4957 60.5742 19.9506 60.5639 21.3405C58.6663 21.3405 56.7702 21.3405 54.8746 21.3405C54.8561 22.2772 54.8381 23.2831 55.3522 24.1081C55.8581 24.8173 56.9288 25.0103 57.6605 24.545C58.1624 24.169 58.4122 23.5655 58.5483 22.9722C59.1581 23.1022 59.7654 23.2404 60.3732 23.3765C60.2371 24.1955 59.9688 25.0265 59.3878 25.6422C58.6234 26.4754 57.4327 26.7903 56.3337 26.7131C54.8624 26.6197 53.582 25.4959 53.1473 24.1142C52.6922 22.6958 52.879 21.186 52.8424 19.721C52.8142 18.1929 53.4824 16.6181 54.7463 15.7219ZM55.8395 17.2318C55.1142 17.8779 54.9049 18.8818 54.9678 19.8165C56.1585 19.8165 57.3493 19.8165 58.5405 19.8165C58.5424 19.0423 58.4873 18.2254 58.0361 17.567C57.5122 16.9554 56.5166 16.7664 55.8395 17.2318Z" fill="white"/>
</g>
</g>
<defs>
<clipPath id="clip0_54_415">
<rect width="73.1707" height="40" fill="white"/>
</clipPath>
</defs>
</svg>
