<svg width="67" height="64" viewBox="0 0 67 64" fill="none" xmlns="http://www.w3.org/2000/svg">
<g clip-path="url(#clip0_54_540)">
<mask id="mask0_54_540" style="mask-type:luminance" maskUnits="userSpaceOnUse" x="0" y="0" width="67" height="64">
<path d="M66.6667 0H0V63.4617H66.6667V0Z" fill="white"/>
</mask>
<g mask="url(#mask0_54_540)">
<path d="M32.355 1.10775C32.7348 0.741973 33.0888 0.348682 33.4842 0C37.3778 3.86747 41.2519 7.755 45.1454 11.6217C46.5498 13.0321 47.9735 14.4239 49.3653 15.8461C47.491 17.7523 45.5706 19.6132 43.683 21.506C41.362 23.8189 39.0334 26.1244 36.7116 28.4373C35.1563 29.9971 33.5712 31.5286 32.0286 33.101C36.041 37.1477 40.0892 41.1593 44.1128 45.1963C38.0186 45.1949 31.9237 45.1941 25.8296 45.1963C25.3396 45.2067 24.846 45.1272 24.3918 44.9413C23.0952 44.4365 22.1554 43.1199 22.145 41.7221C22.1406 34.0876 22.1443 26.453 22.1436 18.8191C22.1458 17.53 22.1428 16.2416 22.1294 14.9532C22.1212 13.6737 22.2 12.3407 22.7963 11.1816C23.4587 9.83227 24.6208 8.8442 25.6542 7.7892C27.8882 5.56255 30.1156 3.32921 32.355 1.10775ZM31.7922 33.3307C29.1997 35.8927 26.6206 38.4695 24.0334 41.0367C23.8453 41.2225 23.6505 41.4077 23.5182 41.6396C23.0662 42.4158 23.1673 43.4775 23.7784 44.1413C24.2527 44.6685 24.9843 44.89 25.6772 44.89C31.5743 44.8945 37.4714 44.8833 43.3685 44.8952C39.5174 41.0329 35.6544 37.1819 31.7922 33.3307Z" fill="white"/>
<path d="M0.0259499 54.2278C1.36789 54.2389 2.70983 54.2255 4.05178 54.2345C4.88668 54.2568 5.76619 54.4761 6.38624 55.0657C7.36613 55.998 7.3022 57.7377 6.34535 58.6633C5.98254 59.0387 5.49929 59.2499 5.03611 59.4707C5.73869 60.7457 6.49404 61.9925 7.1862 63.2735C6.54013 63.2809 5.89407 63.2817 5.248 63.2735C4.54469 62.0564 3.86071 60.8274 3.15293 59.6134C2.67563 59.6052 2.19833 59.6023 1.72103 59.6157C1.70468 60.8327 1.71285 62.0504 1.71806 63.2675C1.14931 63.2891 0.579827 63.2757 0.0110809 63.2764C-0.00750553 60.6743 0.0081072 58.0729 0.00364649 55.4716C0.012568 55.0567 -0.0216315 54.6404 0.0259499 54.2278ZM1.71955 55.7429C1.70839 56.5281 1.70765 57.3131 1.72029 58.0983C2.32175 58.1191 2.92395 58.1005 3.52615 58.1079C3.97 58.1094 4.44209 58.122 4.84356 57.9012C5.54761 57.5362 5.56769 56.3697 4.89114 55.9667C4.50603 55.7303 4.03765 55.7281 3.6005 55.7318C2.97376 55.7407 2.34629 55.7199 1.71955 55.7429Z" fill="white"/>
<path d="M32.6807 54.2293C33.219 54.2322 33.758 54.233 34.2962 54.2285C34.3156 57.244 34.3014 60.2602 34.3036 63.2757C33.7602 63.2794 33.2167 63.2809 32.674 63.2749C32.6762 60.2595 32.6628 57.244 32.6807 54.2293Z" fill="white"/>
<path d="M21.6684 55.1282C22.203 55.1356 22.739 55.1334 23.2743 55.1296C23.2877 55.7088 23.2535 56.2894 23.2906 56.8686C23.7479 56.8716 24.2051 56.8589 24.6624 56.8746C24.6653 57.3146 24.704 57.7592 24.6415 58.1964C24.188 58.1868 23.7345 58.1808 23.2818 58.1986C23.2654 59.1228 23.281 60.0476 23.2736 60.9725C23.2743 61.2766 23.2877 61.6371 23.5449 61.846C23.855 62.0899 24.2742 62.0029 24.6326 61.9472C24.6913 62.3895 24.7382 62.8334 24.7828 63.2772C24.0334 63.5174 23.1546 63.5642 22.4498 63.1664C21.8677 62.8341 21.6484 62.1271 21.6469 61.4936C21.6424 60.3993 21.6424 59.3049 21.6484 58.2113C21.3182 58.1689 20.9844 58.1927 20.6528 58.1934C20.6484 57.7578 20.6528 57.3221 20.6484 56.8864C20.98 56.8552 21.3123 56.8694 21.6446 56.8656C21.6595 56.2864 21.6134 55.7051 21.6684 55.1282Z" fill="white"/>
<path d="M10.3988 56.7134C11.5184 56.5773 12.728 56.9185 13.5176 57.7468C14.403 58.6724 14.5874 60.1139 14.1874 61.3005C13.8514 62.2967 12.9652 63.0476 11.9593 63.3131C10.8018 63.6349 9.47471 63.4283 8.53271 62.6595C7.96544 62.2038 7.58557 61.5362 7.45171 60.8239C7.27631 59.8865 7.41304 58.8567 7.98184 58.0717C8.53644 57.2888 9.45904 56.8264 10.3988 56.7134ZM10.3973 58.2724C9.83304 58.4122 9.34237 58.8352 9.15051 59.3883C8.91411 60.0649 9.03977 60.8923 9.56244 61.4053C10.2204 62.0663 11.3764 62.1087 12.0879 61.5094C12.928 60.8299 12.9481 59.3913 12.14 58.6791C11.676 58.259 10.998 58.1222 10.3973 58.2724Z" fill="white"/>
<path d="M16.1173 56.9934C16.8191 56.6299 17.6555 56.618 18.4123 56.789C19.051 56.9325 19.5959 57.3681 19.9149 57.9347C19.587 58.2112 19.225 58.4454 18.8614 58.6737C18.6116 58.351 18.2859 58.0588 17.8696 57.9911C17.4882 57.9287 17.0385 57.9227 16.7262 58.1837C16.4979 58.38 16.5738 58.7629 16.8139 58.916C17.3789 59.3026 18.0957 59.2997 18.7239 59.5279C19.2688 59.7026 19.8235 60.0312 20.0405 60.5903C20.3067 61.3025 20.158 62.1716 19.6227 62.7225C19.1907 63.1768 18.564 63.3969 17.9499 63.4444C17.3499 63.4875 16.7307 63.4281 16.1746 63.1887C15.6096 62.9493 15.1225 62.5151 14.8438 61.9664C15.2787 61.6965 15.7054 61.4148 16.1433 61.1501C16.3745 61.4817 16.6444 61.8133 17.0317 61.9657C17.4548 62.1352 17.9663 62.1426 18.37 61.9166C18.6785 61.7434 18.7781 61.2564 18.5038 61.0096C18.1797 60.7219 17.7343 60.6461 17.3254 60.5524C16.7024 60.4275 16.0601 60.2149 15.6043 59.7509C15.1337 59.2766 15.0177 58.5183 15.2556 57.9042C15.4117 57.5035 15.7367 57.1845 16.1173 56.9934Z" fill="white"/>
<path d="M27.5701 56.8404C28.7403 56.4769 30.1529 56.7356 30.9752 57.6887C31.6569 58.4269 31.8145 59.4789 31.7595 60.4477C30.1179 60.4715 28.4764 60.4507 26.8348 60.4573C26.8571 61.1257 27.3158 61.7606 27.9582 61.9643C28.4154 62.1026 28.9269 62.0981 29.3708 61.9138C29.7232 61.7695 29.9596 61.4603 30.2146 61.1926C30.642 61.3904 31.0569 61.6142 31.4829 61.8157C31.106 62.5977 30.3492 63.1866 29.4986 63.3635C28.7894 63.51 28.0303 63.5041 27.3478 63.2416C26.5211 62.9309 25.8393 62.2617 25.5122 61.4409C25.168 60.5785 25.1672 59.5815 25.5085 58.7184C25.8586 57.8181 26.6467 57.114 27.5701 56.8404ZM26.8564 59.2046C27.9827 59.2269 29.1113 59.2255 30.2376 59.2053C30.1774 58.9028 30.0451 58.6106 29.8228 58.3935C29.4473 58.0069 28.8719 57.885 28.3522 57.9415C27.6616 58.0203 27.0578 58.5429 26.8564 59.2046Z" fill="white"/>
<path d="M37.076 57.0499C38.0172 56.5778 39.1807 56.5384 40.1346 56.9986C40.8201 57.3265 41.3509 57.9428 41.6029 58.6573C41.8207 59.2275 41.8223 59.8468 41.8096 60.4483C40.1651 60.4579 38.5205 60.4438 36.8767 60.4549C36.9169 60.9315 37.1385 61.4029 37.5236 61.6958C38.0239 62.0809 38.7205 62.1337 39.3093 61.9485C39.7101 61.8199 39.9851 61.4869 40.258 61.1858C40.6907 61.3769 41.1078 61.6014 41.5315 61.8125C41.1725 62.5411 40.4885 63.1083 39.7004 63.3158C39.2513 63.4362 38.7815 63.4667 38.3191 63.437C37.2879 63.3633 36.3006 62.7701 35.7817 61.8713C35.3111 61.0817 35.2055 60.1085 35.3973 59.2186C35.6003 58.2945 36.2285 57.4729 37.076 57.0499ZM38.2098 57.9651C37.5905 58.1027 37.0953 58.6045 36.9005 59.1993C38.0284 59.2141 39.1569 59.2141 40.2855 59.1993C40.2231 58.8409 40.0424 58.5004 39.7547 58.2737C39.3265 57.9309 38.7354 57.8566 38.2098 57.9651Z" fill="white"/>
<path d="M44.1787 57.1664C45.0552 56.6296 46.163 56.5493 47.1384 56.8363C47.8692 57.0534 48.5517 57.5649 48.8372 58.2883C48.3785 58.5441 47.9317 58.8199 47.4662 59.0637C47.2321 58.7961 47.0008 58.5031 46.6663 58.3559C46.0254 58.0497 45.1876 58.2057 44.7199 58.747C44.2991 59.2176 44.1973 59.8949 44.2999 60.5008C44.3832 60.9893 44.6642 61.4577 45.105 61.703C45.5392 61.9521 46.0804 61.9788 46.5548 61.8375C46.989 61.7037 47.305 61.3543 47.5636 60.9982C48.0172 61.2249 48.4588 61.474 48.8996 61.7253C48.4982 62.497 47.7792 63.1223 46.9258 63.3334C45.5273 63.7051 43.8553 63.2025 43.0999 61.9171C42.6256 61.1402 42.5074 60.1781 42.6836 59.2935C42.8583 58.4177 43.4085 57.6221 44.1787 57.1664Z" fill="white"/>
<path d="M52.4767 56.7045C53.5332 56.5751 54.664 56.8643 55.4565 57.5936C56.4416 58.4776 56.6825 59.9623 56.3048 61.1912C56.058 62.0075 55.4431 62.6901 54.6796 63.0603C53.6507 63.5621 52.3972 63.5777 51.3541 63.1064C50.5259 62.7391 49.8635 62.0068 49.6137 61.1317C49.3795 60.3021 49.4159 59.3839 49.7639 58.5906C50.2278 57.5171 51.337 56.8301 52.4767 56.7045ZM52.5437 58.2479C52.0262 58.3631 51.5541 58.7029 51.3199 59.1831C50.9727 59.8931 51.0753 60.8336 51.6515 61.3964C52.3043 62.0537 53.4551 62.0975 54.1644 61.5057C54.9956 60.8403 55.0387 59.4329 54.2655 58.7073C53.8179 58.2731 53.1459 58.1148 52.5437 58.2479Z" fill="white"/>
<path d="M60.0191 56.8049C60.6399 56.5945 61.3737 56.6242 61.9358 56.9818C62.2176 57.1573 62.3915 57.4479 62.5573 57.7267C62.8294 57.3914 63.138 57.0695 63.5424 56.8993C64.2978 56.5647 65.2538 56.5788 65.9348 57.0792C66.4679 57.4791 66.676 58.1751 66.6642 58.8189C66.659 60.3013 66.6774 61.7838 66.6552 63.2663C66.114 63.267 65.5728 63.2715 65.0323 63.2625C65.0367 62.0537 65.0315 60.8441 65.0352 59.6352C65.0345 59.1831 65.062 58.6441 64.694 58.3133C64.2241 57.9379 63.448 58.0613 63.1 58.5483C62.8547 58.8806 62.787 59.3043 62.7848 59.7073C62.7781 60.8939 62.7952 62.0804 62.7766 63.267C62.2376 63.267 61.6978 63.2707 61.1588 63.264C61.1544 61.9555 61.1604 60.6463 61.1566 59.3378C61.1559 58.9639 61.0875 58.5386 60.7752 58.294C60.3061 57.9431 59.5753 58.0761 59.24 58.5512C58.8682 59.0263 58.9062 59.6612 58.9114 60.2299C58.9084 61.2425 58.9188 62.2551 58.9069 63.2677C58.3664 63.2677 57.8252 63.2677 57.2847 63.2677C57.2743 61.134 57.2802 58.9995 57.2817 56.8658C57.8244 56.8524 58.3672 56.8524 58.9106 56.8658C58.9106 57.1267 58.9121 57.3885 58.9158 57.6501C59.2229 57.2993 59.5649 56.9543 60.0191 56.8049Z" fill="white"/>
</g>
</g>
<defs>
<clipPath id="clip0_54_540">
<rect width="66.6667" height="64" fill="white"/>
</clipPath>
</defs>
</svg>
