<svg width="81" height="32" viewBox="0 0 81 32" fill="none" xmlns="http://www.w3.org/2000/svg">
<path d="M50.0516 0.645264V7.37582H44.1948V28.9996H37.3382V7.37582H31.3386V0.645264H50.0516Z" fill="#FEFEFE"/>
<path d="M30.7673 18.2592C29.3388 24.7035 23.6249 29.4291 16.7683 29.4291C8.76897 29.4291 2.34085 22.9849 2.34085 14.9656C2.34085 7.08941 8.76897 0.645264 16.7683 0.645264C23.4821 0.645264 29.0531 5.22777 30.7673 11.3855H23.1964C22.0536 9.09424 19.6252 7.51902 16.7683 7.51902C12.6258 7.51902 9.34029 10.9559 9.34029 14.9656C9.34029 19.1185 12.6258 22.4122 16.7683 22.4122C19.6252 22.4122 22.1965 20.6937 23.3392 18.2592H30.7673Z" fill="#FEFEFE"/>
<path d="M79.0489 18.2592C77.6208 24.7035 71.9069 29.4291 65.0503 29.4291C57.0509 29.4291 50.6228 22.9849 50.6228 14.9656C50.6228 7.08941 57.0509 0.645264 65.0503 0.645264C71.7641 0.645264 77.3351 5.22777 79.0489 11.3855H71.4783C70.3356 9.09424 67.9073 7.51902 65.0503 7.51902C60.9078 7.51902 57.6224 10.9559 57.6224 14.9656C57.6224 19.1185 60.9078 22.4122 65.0503 22.4122C67.9073 22.4122 70.4784 20.6937 71.7642 18.2592H79.0489Z" fill="#FEFEFE"/>
</svg>
