<svg width="95" height="32" viewBox="0 0 95 32" fill="none" xmlns="http://www.w3.org/2000/svg">
<g clip-path="url(#clip0_54_456)">
<mask id="mask0_54_456" style="mask-type:luminance" maskUnits="userSpaceOnUse" x="0" y="0" width="95" height="32">
<path d="M94.1887 0.31543H0V31.8735H94.1887V0.31543Z" fill="white"/>
</mask>
<g mask="url(#mask0_54_456)">
<path d="M23.2283 5.04434C29.704 2.35169 36.636 0.727191 43.6458 0.400346C48.3969 0.166685 53.1841 0.404518 57.8684 1.24737C64.0368 2.3503 70.0371 4.39343 75.5949 7.28777C79.8225 9.53671 83.8509 12.1821 87.482 15.3115C89.8952 17.3811 92.1986 19.5953 94.1887 22.082C91.9662 23.5674 89.7534 25.0668 87.5333 26.5564C86.9983 25.2782 86.3179 24.0681 85.6242 22.8721C85.4014 22.5216 85.219 22.1405 84.9328 21.8359C84.8242 24.0821 84.1926 26.3686 82.7756 28.1517C80.9383 30.5425 77.8838 31.7192 74.941 31.8679C56.4456 31.8777 37.9517 31.868 19.4578 31.8736C16.5899 31.7901 13.6246 30.6913 11.747 28.4535C10.1461 26.5897 9.46741 24.1057 9.35752 21.6912C8.36033 23.2587 7.43819 24.879 6.69826 26.5842C4.46875 25.0737 2.21699 23.5939 0 22.0626C1.21976 20.5424 2.53132 19.096 3.9597 17.7677C6.05567 15.6731 8.38116 13.8233 10.7512 12.0514C14.6483 9.28638 18.8083 6.8705 23.2283 5.04434ZM42.9045 1.67018C40.2549 1.88854 37.6193 2.29327 35.0407 2.94835C28.4078 4.57841 22.1699 7.8427 17.0975 12.4227C15.0349 14.2531 13.1364 16.2725 11.48 18.4784C10.4813 19.8178 10.4257 21.6189 10.772 23.1961C11.256 25.0723 12.2866 26.8485 13.8277 28.0501C15.4967 29.3297 17.6427 29.8916 19.7276 29.8207C37.8989 29.8193 56.0715 29.8193 74.243 29.8207C75.6069 29.8596 76.9866 29.6566 78.2635 29.167C79.9505 28.5216 81.3555 27.2546 82.2931 25.7247C83.354 24.0181 83.9064 21.8999 83.389 19.9179C83.2109 19.146 82.6282 18.5786 82.1609 17.9721C79.1595 14.2127 75.5695 10.9137 71.5013 8.33924C66.4598 5.0972 60.7046 2.98869 54.7766 2.11803C50.8586 1.4699 46.8614 1.4087 42.9045 1.67018Z" fill="white"/>
<path d="M20.0657 13.2422C23.992 13.2255 27.9197 13.2408 31.846 13.2352C31.5442 13.8834 31.2285 14.5273 30.9323 15.1782C29.5372 15.1949 28.1422 15.1643 26.7473 15.1935C25.1951 18.3952 23.604 21.5789 22.0448 24.7778C21.0281 24.7819 20.0114 24.7778 18.9948 24.7792C20.5678 21.5802 22.138 18.3799 23.7138 15.1824C22.1937 15.181 20.6749 15.1824 19.1561 15.1824C19.4565 14.5343 19.7722 13.8931 20.0657 13.2422Z" fill="white"/>
<path d="M41.7514 13.1781C42.6039 13.1502 43.4579 13.1711 44.3119 13.167C43.4509 14.9222 42.5831 16.6733 41.7194 18.4271C41.6498 18.6065 41.5302 18.9028 41.7249 19.0432C42.0573 19.103 42.316 18.8485 42.5831 18.6983C43.501 18.1336 44.4065 17.5439 45.3411 17.007C46.2215 16.9625 47.1047 17.0056 47.9864 16.989C46.5441 17.9138 45.1186 18.868 43.679 19.7985C43.8668 20.7498 44.0059 21.7136 44.2493 22.6538C44.3216 22.9723 44.5664 23.2866 44.9225 23.2769C45.8265 23.1865 46.6735 22.8179 47.4788 22.4146C47.3133 21.3311 47.5789 20.1934 48.2048 19.295C49.4761 17.4563 51.7222 16.3269 53.9601 16.4493C54.5275 16.4966 55.127 16.6413 55.5554 17.039C55.917 17.3686 56.0686 17.8958 55.9587 18.3701C55.8113 19.1364 55.2772 19.7554 54.7084 20.2588C53.4831 21.2991 51.9962 21.9626 50.508 22.5342C50.903 23.3979 51.9517 23.6316 52.8155 23.5537C53.814 23.4452 54.8586 23.2546 55.6903 22.6524C56.5985 22.021 57.2856 21.1239 57.8141 20.1628C58.7279 18.58 60.3399 17.3798 62.1621 17.1016C63.0629 16.9556 64.0356 17.1378 64.7529 17.7247C65.5166 16.2017 66.3021 14.6913 67.0647 13.1684C67.9118 13.1627 68.7583 13.167 69.6054 13.1656C68.1352 16.1976 66.6529 19.2226 65.1894 22.2561C65.0215 22.5718 65.0481 23.1281 65.5124 23.1406C66.2146 23.0544 66.831 22.6427 67.4276 22.2867C67.7283 19.6315 70.095 17.384 72.7378 17.1169C73.5571 17.0363 74.4084 17.2476 75.0562 17.7692C75.1812 17.537 75.3122 17.3075 75.4553 17.0863C76.2928 17.1044 77.1314 17.0919 77.9689 17.0933C77.1676 18.7943 76.3538 20.4897 75.5471 22.1879C75.4372 22.4341 75.2996 22.7456 75.4722 22.9974C75.5821 23.2018 75.8575 23.206 76.0561 23.1559C76.7667 22.9403 77.4067 22.5495 78.0256 22.1476C78.1983 22.4536 78.3704 22.7595 78.543 23.0669C77.731 23.779 76.745 24.2561 75.7391 24.6274C75.0104 24.8875 74.1524 25.0001 73.4442 24.619C73.1006 24.4494 72.8893 24.1198 72.6707 23.8221C71.9559 24.0307 71.3817 24.5857 70.6306 24.722C69.4973 25.0906 68.0283 24.7248 67.5779 23.5203C66.6264 24.0933 65.6108 24.6455 64.4956 24.8027C63.7572 24.907 62.924 24.6483 62.5249 23.9848C62.4277 23.7567 62.1355 23.7609 61.9701 23.907C60.9895 24.5537 59.7613 25.0308 58.5832 24.69C57.7612 24.4536 57.1993 23.6664 57.1173 22.8333C55.2369 24.4272 52.6499 25.1448 50.2188 24.7359C49.3481 24.5871 48.476 24.1977 47.9294 23.48C46.7083 23.9376 45.4885 24.4077 44.2229 24.7303C43.5135 24.9028 42.5677 24.9014 42.1686 24.1698C41.7875 23.327 41.6554 22.3965 41.3424 21.53C41.2868 21.5022 41.1769 21.448 41.1213 21.4201C40.6901 21.6288 40.2882 21.9 39.9001 22.1782C39.4231 23.0099 39.0351 23.8931 38.5942 24.7443C37.7513 24.7429 36.9071 24.7512 36.0642 24.7387C36.2325 24.3882 36.4022 24.0377 36.5747 23.69C35.4926 24.2366 34.3549 24.9181 33.0962 24.8027C32.4773 24.7526 31.964 24.3576 31.6372 23.85C31.5802 23.8374 31.4662 23.8138 31.4091 23.8012C30.8277 24.1045 30.2825 24.4939 29.6344 24.651C28.7554 24.9167 27.6775 24.8819 26.989 24.2032C26.2797 23.5231 26.213 22.4216 26.4674 21.5231C27.0767 19.3172 29.0155 17.5244 31.2728 17.1211C32.1949 16.9542 33.2283 17.0933 33.9558 17.7247C34.1031 17.4966 34.2409 17.263 34.3716 17.0251C35.2158 17.0251 36.0615 17.0251 36.9057 17.0251C36.1324 18.6329 35.3716 20.2477 34.6011 21.8583C34.4286 22.2102 34.1866 22.6413 34.423 23.0224C34.736 23.2296 35.1101 23.0961 35.4189 22.9584C36.1337 22.6315 36.825 22.2574 37.4954 21.8471C38.9057 18.9542 40.3647 16.0835 41.7514 13.1781ZM52.725 17.9973C51.789 18.377 51.0602 19.1586 50.5942 20.0391C50.3995 20.4368 50.1826 20.8722 50.2925 21.327C50.5178 21.3256 50.7556 21.3562 50.9684 21.256C51.9712 20.8541 52.7751 20.0752 53.4066 19.2171C53.629 18.9153 53.8113 18.5022 53.636 18.135C53.4343 17.8346 53.0171 17.9055 52.725 17.9973ZM31.7262 18.4271C30.8208 18.7859 30.1351 19.5536 29.6706 20.3882C29.3604 21.0015 29.0892 21.7067 29.2478 22.4021C29.3257 22.8096 29.7193 23.1295 30.1393 23.1003C30.8124 23.0474 31.3883 22.626 31.8514 22.1614C32.512 21.4646 33.0253 20.5843 33.1435 19.619C33.1963 19.1684 33.0628 18.6371 32.6316 18.4118C32.3465 18.2949 32.0114 18.3256 31.7262 18.4271ZM62.4694 18.4382C61.7225 18.7359 61.1381 19.3353 60.6864 19.9848C60.2591 20.6566 59.8989 21.4452 59.9866 22.2588C60.0269 22.715 60.419 23.1309 60.8959 23.1003C61.5359 23.0641 62.0908 22.6719 62.543 22.2463C63.2108 21.5745 63.7276 20.7178 63.8937 19.7776C63.9601 19.3673 63.9323 18.8805 63.6178 18.5731C63.3273 18.2588 62.8353 18.3005 62.4694 18.4382ZM73.0258 18.4132C71.7615 18.7818 70.8866 19.9515 70.4374 21.1392C70.2635 21.6955 70.1343 22.4229 70.5666 22.893C70.9741 23.3089 71.6208 23.135 72.0676 22.8792C72.966 22.3478 73.6392 21.4744 74.0159 20.5078C74.1983 20.0085 74.3136 19.4354 74.127 18.9208C73.9604 18.4924 73.4569 18.2824 73.0258 18.4132Z" fill="white"/>
</g>
</g>
<defs>
<clipPath id="clip0_54_456">
<rect width="94.1887" height="32" fill="white"/>
</clipPath>
</defs>
</svg>
