<svg width="126" height="40" viewBox="0 0 126 40" fill="none" xmlns="http://www.w3.org/2000/svg">
<mask id="mask0_54_426" style="mask-type:luminance" maskUnits="userSpaceOnUse" x="0" y="0" width="126" height="40">
<path d="M126 0.427002H0V39.5726H126V0.427002Z" fill="white"/>
</mask>
<g mask="url(#mask0_54_426)">
<path d="M44.7266 13.7108L46.1435 10.5227H47.7376L45.2579 15.8362C44.9037 16.3676 44.7266 16.5447 44.5495 16.899C44.1952 17.0761 43.841 17.0761 43.4867 17.0761C43.1325 17.0761 42.6011 17.0761 42.4241 16.899L42.6011 15.6592C42.7783 15.6592 42.7783 15.6592 42.9554 15.8362C43.1325 15.8362 43.1325 15.8362 43.3097 15.8362C43.6639 15.8362 43.841 15.6592 43.841 15.482L44.0181 15.3049L41.3613 10.5227H43.1325L44.7266 13.7108Z" fill="#FEFEFE"/>
<path d="M51.1019 13.0024H53.9357V10.5227H55.3527V17.0761H53.9357V14.4193H51.1019V17.0761H49.6849V10.5227H51.1019V13.0024Z" fill="#FEFEFE"/>
<path d="M59.0726 14.7736L62.2607 10.5227H63.6777V17.0761H62.0836V12.8252L59.0726 17.0761H57.6556V10.5227H59.0726V14.7736Z" fill="#FEFEFE"/>
<path d="M68.9913 15.8362C69.7 15.8362 70.054 15.482 70.054 14.9506C70.054 14.7736 69.8773 14.5964 69.7 14.4193C69.7 14.2422 69.346 14.2422 68.9913 14.2422H67.3973V15.8362H68.9913ZM68.8147 13.0024C69.1687 13.0024 69.346 13.0024 69.346 12.8252C69.5227 12.6481 69.7 12.6481 69.7 12.2939C69.7 11.9396 69.346 11.7625 68.8147 11.7625H67.3973V13.0024H68.8147ZM70.4087 10.8769C70.94 11.2312 71.1167 11.7625 71.1167 12.2939C71.1167 12.471 70.94 12.8252 70.94 13.0024C70.7627 13.1795 70.5853 13.3566 70.4087 13.5337C70.7627 13.7108 70.94 13.888 71.1167 14.065C71.4713 14.4193 71.4713 14.7736 71.4713 15.1278C71.4713 15.3049 71.4713 15.482 71.294 15.8362C71.294 16.0134 71.1167 16.1905 70.94 16.3676C70.7627 16.5447 70.4087 16.7218 70.054 16.899C69.8773 16.899 69.5227 17.0761 68.9913 17.0761H65.8034V10.5227H68.8147C69.5227 10.5227 70.054 10.5227 70.4087 10.8769Z" fill="#FEFEFE"/>
<path d="M78.3794 11.7625H74.8367V13.0024H78.0254V14.2422H74.8367V15.6592H78.5567V17.0761H73.42V10.5227H78.3794V11.7625Z" fill="#FEFEFE"/>
<path d="M83.3387 13.888C83.6927 13.888 84.0467 13.888 84.224 13.5337C84.4014 13.3566 84.578 13.1795 84.578 12.8252C84.578 12.471 84.4014 12.2939 84.224 12.1168C84.0467 11.9396 83.6927 11.7625 83.3387 11.7625H81.9214V13.888H83.3387ZM84.578 10.6998C84.7554 10.6998 85.1094 10.8769 85.2867 11.054C85.6414 11.2312 85.818 11.5854 85.818 11.7625C85.9954 12.1168 85.9954 12.471 85.9954 12.8252C85.9954 13.1795 85.9954 13.5337 85.818 13.888C85.6414 14.065 85.464 14.4193 85.2867 14.5964C84.9327 14.7736 84.7554 14.9506 84.4014 15.1278C84.0467 15.1278 83.6927 15.1278 83.3387 15.1278H81.9214V17.0761H80.5047V10.5227H83.5154C83.87 10.5227 84.224 10.5227 84.578 10.6998Z" fill="#FEFEFE"/>
<path d="M92.1934 11.7626C92.0167 11.7626 91.6621 11.5855 91.3081 11.5855C90.9541 11.5855 90.5994 11.7626 90.4227 11.7626C90.2454 11.9398 89.8914 12.1168 89.7141 12.294C89.5367 12.4711 89.36 12.6482 89.36 12.8254C89.1827 13.1796 89.1827 13.3567 89.1827 13.7109C89.1827 14.0652 89.1827 14.2423 89.36 14.5965C89.36 14.7736 89.5367 15.1279 89.7141 15.305C89.8914 15.4821 90.2454 15.4821 90.4227 15.6592C90.5994 15.8364 90.9541 15.8364 91.3081 15.8364C91.6621 15.8364 92.0167 15.6592 92.3707 15.6592C92.5481 15.4821 92.9021 15.305 93.2561 15.1279L93.9647 16.0135C93.2561 16.722 92.3707 17.0762 91.1307 17.0762C90.5994 17.0762 90.2454 17.0762 89.7141 16.8991C89.3601 16.722 89.0054 16.5448 88.6514 16.1906C88.4741 15.8364 88.1201 15.4821 87.9427 15.1279C87.7654 14.7736 87.7654 14.2423 87.7654 13.7109C87.7654 13.3567 87.7654 12.8254 87.9427 12.4711C88.1201 11.9398 88.4741 11.5855 88.6514 11.2312C89.0054 11.0542 89.3601 10.6999 89.8914 10.5228C90.2454 10.3457 90.7767 10.3457 91.3081 10.3457C91.8394 10.3457 92.3707 10.3457 92.7247 10.5228C93.2561 10.6999 93.6107 10.877 93.9647 11.2312L93.0794 12.294C92.9021 12.1168 92.548 11.9398 92.1934 11.7626Z" fill="#FEFEFE"/>
<path d="M97.33 14.7736L100.518 10.5227H101.935V17.0761H100.341V12.8252L97.33 17.0761H95.9127V10.5227H97.33V14.7736Z" fill="#FEFEFE"/>
<path d="M109.729 11.7625H107.426V17.0761H106.009V11.7625H103.707V10.5227H109.729V11.7625Z" fill="#FEFEFE"/>
<path d="M116.637 11.7625H113.094V13.0024H116.105V14.2422H113.094V15.6592H116.637V17.0761H111.677V10.5227H116.637V11.7625Z" fill="#FEFEFE"/>
<path d="M124.429 11.7625H122.127V17.0761H120.71V11.7625H118.407V10.5227H124.429V11.7625Z" fill="#FEFEFE"/>
<path d="M47.9141 28.0578H46.4971V22.7443H44.3717C44.3717 23.2756 44.3717 23.807 44.3717 24.3383C44.3717 24.8697 44.3717 25.2239 44.3717 25.7553C44.3717 26.1095 44.1946 26.4637 44.1946 26.818C44.0175 26.9951 43.8404 27.3493 43.6633 27.5265C43.4861 27.7036 43.309 27.8807 43.1319 28.0578C42.7777 28.0578 42.6005 28.2349 42.2463 28.2349C42.0692 28.2349 41.8921 28.2349 41.7149 28.0578C41.5378 28.0578 41.3607 28.0578 41.1836 27.8807L41.5378 26.6409L41.7149 26.818C41.8921 26.818 41.8921 26.818 42.0692 26.818C42.0692 26.818 42.2463 26.818 42.2463 26.6409C42.4234 26.6409 42.4234 26.6409 42.6005 26.4637C42.6005 26.2867 42.7777 26.1095 42.7777 25.9324C42.7777 25.7553 42.9548 25.4011 42.9548 25.2239C42.9548 24.8697 42.9548 24.5155 42.9548 24.1612C42.9548 23.6299 42.9548 23.2756 42.9548 22.7443V21.5044H47.9141V28.0578Z" fill="#FEFEFE"/>
<path d="M51.634 22.7443C51.4569 22.9215 51.1027 23.0986 50.9256 23.2757C50.7484 23.4529 50.7484 23.6299 50.5713 23.9842C50.5713 24.1613 50.3942 24.5155 50.3942 24.6927C50.3942 25.0469 50.5713 25.4011 50.5713 25.5783C50.7484 25.9325 50.7484 26.1096 50.9256 26.2867C51.1027 26.4639 51.4569 26.641 51.634 26.641C51.8112 26.8181 52.1654 26.8181 52.5196 26.8181C52.8738 26.8181 53.051 26.8181 53.4052 26.641C53.5824 26.641 53.7594 26.4639 53.9366 26.2867C54.1137 26.1096 54.2908 25.7554 54.2908 25.5783C54.4679 25.4011 54.4679 25.0469 54.4679 24.6927C54.4679 24.5155 54.4679 24.1613 54.2908 23.9842C54.2908 23.6299 54.1137 23.4529 53.9366 23.2757C53.7594 23.0986 53.5824 22.9215 53.4052 22.7443C53.051 22.7443 52.8738 22.7443 52.5196 22.7443C52.1654 22.7443 51.8112 22.7443 51.634 22.7443ZM53.9366 21.6817C54.2908 21.8587 54.645 22.0359 54.9993 22.3901C55.3535 22.5673 55.5306 22.9215 55.7078 23.4529C55.8849 23.8071 55.8849 24.3384 55.8849 24.6927C55.8849 25.224 55.8849 25.7554 55.7078 26.1096C55.5306 26.4639 55.3535 26.8181 54.9993 27.1723C54.645 27.5266 54.2908 27.7037 53.9366 27.8808C53.4052 28.0579 53.051 28.2351 52.5196 28.2351C51.9883 28.2351 51.4569 28.0579 51.1027 27.8808C50.5713 27.7037 50.2171 27.5266 50.04 27.1723C49.6857 26.8181 49.5086 26.4639 49.3315 26.1096C49.1544 25.7554 48.9772 25.224 48.9772 24.6927C48.9772 24.3384 49.1544 23.8071 49.3315 23.4529C49.5086 23.0986 49.6857 22.5673 50.04 22.3901C50.2171 22.0359 50.5713 21.8587 51.1027 21.6817C51.4569 21.5045 51.9883 21.3274 52.5196 21.3274C53.051 21.3274 53.4052 21.5045 53.9366 21.6817Z" fill="#FEFEFE"/>
<path d="M60.1353 26.818C60.6667 26.818 60.8438 26.6409 61.0209 26.4637C61.1981 26.2867 61.3751 26.1095 61.3751 25.9324C61.3751 25.5781 61.1981 25.4011 61.0209 25.4011C60.8438 25.2239 60.6667 25.0468 60.3125 25.0468H58.7184V26.818H60.1353ZM62.0837 22.7443H58.7184V23.807H60.1353C60.6667 23.807 60.8438 23.807 61.1981 23.9841C61.5523 23.9841 61.9065 24.1612 62.0837 24.3383C62.2607 24.5155 62.4379 24.6925 62.615 25.0468C62.7921 25.2239 62.7921 25.5781 62.7921 25.9324C62.7921 26.2867 62.7921 26.6409 62.615 26.818C62.4379 27.1722 62.2607 27.3493 62.0837 27.5265C61.9065 27.7036 61.5523 27.8807 61.1981 27.8807C60.8438 28.0578 60.6667 28.0578 60.1353 28.0578H57.3014V21.5044H62.0837V22.7443Z" fill="#FEFEFE"/>
<path d="M67.9287 25.4011L67.0433 22.9214L66.1575 25.4011H67.9287ZM70.5853 28.0578H68.9913L68.46 26.818H65.6261L65.0947 28.0578H63.5007L66.1575 21.5044H67.9287L70.5853 28.0578Z" fill="#FEFEFE"/>
<path d="M72.5334 23.6299C72.5334 24.1612 72.5334 24.5155 72.888 24.6925C73.0647 24.8697 73.242 25.0468 73.7734 25.0468C74.1274 25.0468 74.3047 24.8697 74.482 24.8697C74.836 24.8697 75.0134 24.6925 75.19 24.5155V21.5044H76.7847V28.0578H75.19V25.9324C74.836 26.1095 74.1274 26.2867 73.596 26.2867C73.0647 26.2867 72.888 26.2867 72.5334 26.1095C72.1794 26.1095 72.002 25.9324 71.648 25.7553C71.4707 25.4011 71.2934 25.2239 71.2934 24.8697C71.1167 24.5155 71.1167 24.1612 71.1167 23.807V21.5044H72.5334V23.6299Z" fill="#FEFEFE"/>
<path d="M83.692 22.7443H80.3267V23.9841H83.3373V25.4011H80.3267V26.6409H83.8687V28.0578H78.7327V21.5044H83.692V22.7443Z" fill="#FEFEFE"/>
<path d="M88.8287 26.818C89.5374 26.818 89.8914 26.4637 89.8914 25.9324C89.8914 25.7553 89.7147 25.5781 89.5374 25.4011C89.36 25.4011 89.1834 25.2239 88.8287 25.2239H87.0574V26.818H88.8287ZM88.6514 23.9841C88.8287 23.9841 89.006 23.9841 89.1833 23.807C89.36 23.807 89.36 23.6299 89.36 23.4527C89.36 22.9214 89.1834 22.7443 88.4747 22.7443H87.0574V23.9841H88.6514ZM90.246 22.0358C90.6 22.2129 90.7774 22.7443 90.7774 23.2756C90.7774 23.6299 90.7773 23.807 90.6 23.9841C90.6 24.1612 90.4227 24.3383 90.246 24.5155C90.4227 24.6925 90.7774 24.8697 90.954 25.2239C91.1314 25.4011 91.3087 25.7553 91.3087 26.1095C91.3087 26.2867 91.1314 26.6409 91.1314 26.818C90.954 27.1722 90.7773 27.3493 90.6 27.5265C90.4227 27.7036 90.246 27.7036 89.8914 27.8807C89.5374 28.0578 89.1834 28.0578 88.8287 28.0578H85.6407V21.5044H88.4747C89.36 21.5044 89.8914 21.6815 90.246 22.0358Z" fill="#FEFEFE"/>
<path d="M96.7994 22.9215C96.4447 22.7443 96.0907 22.7443 95.7367 22.7443C95.382 22.7443 95.2054 22.7443 94.8507 22.9215C94.674 22.9215 94.4967 23.0986 94.142 23.2757C93.9654 23.4529 93.9654 23.6299 93.788 23.9842C93.788 24.1613 93.6107 24.5155 93.6107 24.6927C93.6107 25.0469 93.788 25.4011 93.788 25.5783C93.9654 25.9325 94.142 26.1096 94.3194 26.2867C94.4967 26.4639 94.674 26.641 94.8507 26.641C95.2054 26.8181 95.382 26.8181 95.7367 26.8181C96.0907 26.8181 96.4447 26.8181 96.7994 26.641C97.1534 26.4639 97.3307 26.2867 97.6847 26.1096L98.3934 27.1723C97.6847 27.8808 96.7994 28.2351 95.7367 28.2351C95.2054 28.2351 94.674 28.0579 94.3194 27.8808C93.788 27.7037 93.434 27.5266 93.0794 27.1723C92.9027 26.9952 92.548 26.641 92.3714 26.1096C92.3714 25.7554 92.194 25.224 92.194 24.8698C92.194 24.3384 92.3714 23.8071 92.3714 23.4529C92.548 23.0986 92.9027 22.7443 93.2567 22.3901C93.434 22.0359 93.788 21.8587 94.3194 21.6817C94.674 21.5045 95.2054 21.3274 95.7367 21.3274C96.268 21.3274 96.7994 21.5045 97.1534 21.5045C97.6847 21.6817 98.0387 22.0359 98.3934 22.213L97.5074 23.2757C97.3307 23.0986 96.976 22.9215 96.7994 22.9215Z" fill="#FEFEFE"/>
<path d="M100.873 23.9841H101.581L103.529 21.5044H105.301L102.821 24.5155L105.478 28.0578H103.529L101.581 25.2239H100.873V28.0578H99.4561V21.5044H100.873V23.9841Z" fill="#FEFEFE"/>
<path d="M108.489 22.7443C108.135 22.9215 107.957 23.0986 107.781 23.2757C107.603 23.4529 107.426 23.6299 107.426 23.9842C107.249 24.1613 107.249 24.5155 107.249 24.6927C107.249 25.0469 107.249 25.4011 107.426 25.5783C107.426 25.9325 107.603 26.1096 107.781 26.2867C107.957 26.4639 108.135 26.641 108.489 26.641C108.666 26.8181 109.02 26.8181 109.375 26.8181C109.551 26.8181 109.906 26.8181 110.083 26.641C110.437 26.641 110.614 26.4639 110.791 26.2867C110.969 26.1096 111.145 25.7554 111.145 25.5783C111.323 25.4011 111.323 25.0469 111.323 24.6927C111.323 24.5155 111.323 24.1613 111.145 23.9842C111.145 23.6299 110.969 23.4529 110.791 23.2757C110.614 23.0986 110.437 22.9215 110.083 22.7443C109.906 22.7443 109.551 22.7443 109.375 22.7443C109.02 22.7443 108.666 22.7443 108.489 22.7443ZM110.791 21.6817C111.145 21.8587 111.5 22.0359 111.854 22.3901C112.031 22.5673 112.385 22.9215 112.563 23.4529C112.739 23.8071 112.739 24.3384 112.739 24.6927C112.739 25.224 112.739 25.7554 112.563 26.1096C112.385 26.4639 112.031 26.8181 111.854 27.1723C111.5 27.5266 111.145 27.7037 110.791 27.8808C110.26 28.0579 109.729 28.2351 109.375 28.2351C108.843 28.2351 108.312 28.0579 107.957 27.8808C107.426 27.7037 107.072 27.5266 106.717 27.1723C106.541 26.8181 106.186 26.4639 106.009 26.1096C105.832 25.7554 105.832 25.224 105.832 24.6927C105.832 24.3384 105.832 23.8071 106.009 23.4529C106.186 23.0986 106.541 22.5673 106.717 22.3901C107.072 22.0359 107.426 21.8587 107.957 21.6817C108.312 21.5045 108.843 21.3274 109.375 21.3274C109.729 21.3274 110.26 21.5045 110.791 21.6817Z" fill="#FEFEFE"/>
<path d="M118.939 22.7443H115.397V28.0578H113.98V21.5044H118.939V22.7443Z" fill="#FEFEFE"/>
<path d="M121.595 22.7443C121.419 22.9215 121.241 23.0986 121.064 23.2757C120.887 23.4529 120.71 23.6299 120.71 23.9842C120.533 24.1613 120.533 24.5155 120.533 24.6927C120.533 25.0469 120.533 25.4011 120.71 25.5783C120.71 25.9325 120.887 26.1096 121.064 26.2867C121.241 26.4639 121.419 26.641 121.595 26.641C121.95 26.8181 122.127 26.8181 122.481 26.8181C122.835 26.8181 123.189 26.8181 123.367 26.641C123.544 26.641 123.898 26.4639 124.075 26.2867C124.252 26.1096 124.252 25.7554 124.429 25.5783C124.429 25.4011 124.607 25.0469 124.607 24.6927C124.607 24.5155 124.429 24.1613 124.429 23.9842C124.252 23.6299 124.252 23.4529 124.075 23.2757C123.898 23.0986 123.544 22.9215 123.367 22.7443C123.189 22.7443 122.835 22.7443 122.481 22.7443C122.127 22.7443 121.95 22.7443 121.595 22.7443ZM123.898 21.6817C124.429 21.8587 124.784 22.0359 124.961 22.3901C125.315 22.5673 125.492 22.9215 125.669 23.4529C125.847 23.8071 126.023 24.3384 126.023 24.6927C126.023 25.224 125.847 25.7554 125.669 26.1096C125.492 26.4639 125.315 26.8181 124.961 27.1723C124.784 27.5266 124.429 27.7037 123.898 27.8808C123.544 28.0579 123.013 28.2351 122.481 28.2351C121.95 28.2351 121.595 28.0579 121.064 27.8808C120.71 27.7037 120.356 27.5266 120.001 27.1723C119.647 26.8181 119.47 26.4639 119.293 26.1096C119.116 25.7554 119.116 25.224 119.116 24.6927C119.116 24.3384 119.116 23.8071 119.293 23.4529C119.47 23.0986 119.647 22.5673 120.001 22.3901C120.356 22.0359 120.71 21.8587 121.064 21.6817C121.595 21.5045 121.95 21.3274 122.481 21.3274C123.013 21.3274 123.544 21.5045 123.898 21.6817Z" fill="#FEFEFE"/>
<path d="M32.505 5.38673C30.0254 4.1469 27.1914 3.08418 24.5347 2.55283C24.3576 2.55283 24.3576 2.55283 24.3576 2.55283C24.1804 2.55283 24.1804 2.72995 24.1804 2.72995V20.4419C24.1804 21.8588 23.1177 22.9215 21.7008 22.9215C20.2838 22.9215 19.2211 21.8588 19.2211 20.4419V2.02147C19.2211 1.84435 19.2211 1.84435 19.044 1.84435C18.3355 1.66724 17.627 1.66724 16.9186 1.66724C14.9702 1.66724 13.022 1.84435 10.8965 2.19859V2.37571V19.5562C10.8965 25.5782 15.6787 30.3605 21.7008 30.3605C27.7228 30.3605 32.6822 25.5782 32.6822 19.5562V5.56385C32.6822 5.56385 32.6822 5.38673 32.505 5.38673Z" fill="#FEFEFE"/>
<path d="M31.796 26.4636C31.6189 26.2865 31.4418 26.2865 31.2647 26.6408C29.3164 30.1832 25.2426 32.1314 21.1689 31.9543C12.1358 31.6001 8.94769 25.2239 8.94769 19.3789C8.94769 19.3789 8.94769 15.128 8.94769 18.139C8.94769 21.1501 8.94769 2.90685 8.94769 2.90685C8.94769 2.72974 8.94769 2.72974 8.94769 2.72974H8.77055C5.93667 3.26109 3.10277 4.3238 0.623103 5.56364C0.445984 5.56364 0.445984 5.74076 0.445984 5.74076V20.0874C1.15446 33.9027 15.6782 37.0908 16.2096 37.0908C16.5638 37.0908 27.368 35.851 31.2647 28.0577C31.4418 27.8806 31.4418 27.8806 31.4418 27.8806C31.4418 27.7035 31.4418 27.7035 31.4418 27.5264C31.6189 27.5264 31.6189 27.3493 31.6189 27.1721C31.796 26.9951 31.796 26.8179 31.796 26.8179C31.796 26.6408 31.796 26.6408 31.796 26.4636Z" fill="#FEFEFE"/>
</g>
</svg>
